<?xml version="1.0" encoding="utf-8" standalone="no"?>
<!DOCTYPE svg PUBLIC "-//W3C//DTD SVG 1.1//EN"
  "http://www.w3.org/Graphics/SVG/1.1/DTD/svg11.dtd">
<!-- Created with matplotlib (https://matplotlib.org/) -->
<svg height="364.110312pt" version="1.1" viewBox="0 0 481.470312 364.110312" width="481.470312pt" xmlns="http://www.w3.org/2000/svg" xmlns:xlink="http://www.w3.org/1999/xlink">
 <metadata>
  <rdf:RDF xmlns:cc="http://creativecommons.org/ns#" xmlns:dc="http://purl.org/dc/elements/1.1/" xmlns:rdf="http://www.w3.org/1999/02/22-rdf-syntax-ns#">
   <cc:Work>
    <dc:type rdf:resource="http://purl.org/dc/dcmitype/StillImage"/>
    <dc:date>2021-04-16T13:46:47.784350</dc:date>
    <dc:format>image/svg+xml</dc:format>
    <dc:creator>
     <cc:Agent>
      <dc:title>Matplotlib v3.3.4, https://matplotlib.org/</dc:title>
     </cc:Agent>
    </dc:creator>
   </cc:Work>
  </rdf:RDF>
 </metadata>
 <defs>
  <style type="text/css">*{stroke-linecap:butt;stroke-linejoin:round;}</style>
 </defs>
 <g id="figure_1">
  <g id="patch_1">
   <path d="M 0 364.110312 
L 481.470312 364.110312 
L 481.470312 0 
L 0 0 
z
" style="fill:#ffffff;"/>
  </g>
  <g id="axes_1">
   <g id="patch_2">
    <path d="M 139.470313 224.64 
L 474.270313 224.64 
L 474.270313 7.2 
L 139.470313 7.2 
z
" style="fill:#eaeaf2;"/>
   </g>
   <g id="matplotlib.axis_1">
    <g id="xtick_1">
     <g id="text_1">
      <!-- Unnamed: 0 -->
      <g style="fill:#262626;" transform="translate(159.245625 301.540781)rotate(-90)scale(0.11 -0.11)">
       <defs>
        <path d="M 8.6875 72.90625 
L 18.609375 72.90625 
L 18.609375 28.609375 
Q 18.609375 16.890625 22.84375 11.734375 
Q 27.09375 6.59375 36.625 6.59375 
Q 46.09375 6.59375 50.34375 11.734375 
Q 54.59375 16.890625 54.59375 28.609375 
L 54.59375 72.90625 
L 64.5 72.90625 
L 64.5 27.390625 
Q 64.5 13.140625 57.4375 5.859375 
Q 50.390625 -1.421875 36.625 -1.421875 
Q 22.796875 -1.421875 15.734375 5.859375 
Q 8.6875 13.140625 8.6875 27.390625 
z
" id="DejaVuSans-85"/>
        <path d="M 54.890625 33.015625 
L 54.890625 0 
L 45.90625 0 
L 45.90625 32.71875 
Q 45.90625 40.484375 42.875 44.328125 
Q 39.84375 48.1875 33.796875 48.1875 
Q 26.515625 48.1875 22.3125 43.546875 
Q 18.109375 38.921875 18.109375 30.90625 
L 18.109375 0 
L 9.078125 0 
L 9.078125 54.6875 
L 18.109375 54.6875 
L 18.109375 46.1875 
Q 21.34375 51.125 25.703125 53.5625 
Q 30.078125 56 35.796875 56 
Q 45.21875 56 50.046875 50.171875 
Q 54.890625 44.34375 54.890625 33.015625 
z
" id="DejaVuSans-110"/>
        <path d="M 34.28125 27.484375 
Q 23.390625 27.484375 19.1875 25 
Q 14.984375 22.515625 14.984375 16.5 
Q 14.984375 11.71875 18.140625 8.90625 
Q 21.296875 6.109375 26.703125 6.109375 
Q 34.1875 6.109375 38.703125 11.40625 
Q 43.21875 16.703125 43.21875 25.484375 
L 43.21875 27.484375 
z
M 52.203125 31.203125 
L 52.203125 0 
L 43.21875 0 
L 43.21875 8.296875 
Q 40.140625 3.328125 35.546875 0.953125 
Q 30.953125 -1.421875 24.3125 -1.421875 
Q 15.921875 -1.421875 10.953125 3.296875 
Q 6 8.015625 6 15.921875 
Q 6 25.140625 12.171875 29.828125 
Q 18.359375 34.515625 30.609375 34.515625 
L 43.21875 34.515625 
L 43.21875 35.40625 
Q 43.21875 41.609375 39.140625 45 
Q 35.0625 48.390625 27.6875 48.390625 
Q 23 48.390625 18.546875 47.265625 
Q 14.109375 46.140625 10.015625 43.890625 
L 10.015625 52.203125 
Q 14.9375 54.109375 19.578125 55.046875 
Q 24.21875 56 28.609375 56 
Q 40.484375 56 46.34375 49.84375 
Q 52.203125 43.703125 52.203125 31.203125 
z
" id="DejaVuSans-97"/>
        <path d="M 52 44.1875 
Q 55.375 50.25 60.0625 53.125 
Q 64.75 56 71.09375 56 
Q 79.640625 56 84.28125 50.015625 
Q 88.921875 44.046875 88.921875 33.015625 
L 88.921875 0 
L 79.890625 0 
L 79.890625 32.71875 
Q 79.890625 40.578125 77.09375 44.375 
Q 74.3125 48.1875 68.609375 48.1875 
Q 61.625 48.1875 57.5625 43.546875 
Q 53.515625 38.921875 53.515625 30.90625 
L 53.515625 0 
L 44.484375 0 
L 44.484375 32.71875 
Q 44.484375 40.625 41.703125 44.40625 
Q 38.921875 48.1875 33.109375 48.1875 
Q 26.21875 48.1875 22.15625 43.53125 
Q 18.109375 38.875 18.109375 30.90625 
L 18.109375 0 
L 9.078125 0 
L 9.078125 54.6875 
L 18.109375 54.6875 
L 18.109375 46.1875 
Q 21.1875 51.21875 25.484375 53.609375 
Q 29.78125 56 35.6875 56 
Q 41.65625 56 45.828125 52.96875 
Q 50 49.953125 52 44.1875 
z
" id="DejaVuSans-109"/>
        <path d="M 56.203125 29.59375 
L 56.203125 25.203125 
L 14.890625 25.203125 
Q 15.484375 15.921875 20.484375 11.0625 
Q 25.484375 6.203125 34.421875 6.203125 
Q 39.59375 6.203125 44.453125 7.46875 
Q 49.3125 8.734375 54.109375 11.28125 
L 54.109375 2.78125 
Q 49.265625 0.734375 44.1875 -0.34375 
Q 39.109375 -1.421875 33.890625 -1.421875 
Q 20.796875 -1.421875 13.15625 6.1875 
Q 5.515625 13.8125 5.515625 26.8125 
Q 5.515625 40.234375 12.765625 48.109375 
Q 20.015625 56 32.328125 56 
Q 43.359375 56 49.78125 48.890625 
Q 56.203125 41.796875 56.203125 29.59375 
z
M 47.21875 32.234375 
Q 47.125 39.59375 43.09375 43.984375 
Q 39.0625 48.390625 32.421875 48.390625 
Q 24.90625 48.390625 20.390625 44.140625 
Q 15.875 39.890625 15.1875 32.171875 
z
" id="DejaVuSans-101"/>
        <path d="M 45.40625 46.390625 
L 45.40625 75.984375 
L 54.390625 75.984375 
L 54.390625 0 
L 45.40625 0 
L 45.40625 8.203125 
Q 42.578125 3.328125 38.25 0.953125 
Q 33.9375 -1.421875 27.875 -1.421875 
Q 17.96875 -1.421875 11.734375 6.484375 
Q 5.515625 14.40625 5.515625 27.296875 
Q 5.515625 40.1875 11.734375 48.09375 
Q 17.96875 56 27.875 56 
Q 33.9375 56 38.25 53.625 
Q 42.578125 51.265625 45.40625 46.390625 
z
M 14.796875 27.296875 
Q 14.796875 17.390625 18.875 11.75 
Q 22.953125 6.109375 30.078125 6.109375 
Q 37.203125 6.109375 41.296875 11.75 
Q 45.40625 17.390625 45.40625 27.296875 
Q 45.40625 37.203125 41.296875 42.84375 
Q 37.203125 48.484375 30.078125 48.484375 
Q 22.953125 48.484375 18.875 42.84375 
Q 14.796875 37.203125 14.796875 27.296875 
z
" id="DejaVuSans-100"/>
        <path d="M 11.71875 12.40625 
L 22.015625 12.40625 
L 22.015625 0 
L 11.71875 0 
z
M 11.71875 51.703125 
L 22.015625 51.703125 
L 22.015625 39.3125 
L 11.71875 39.3125 
z
" id="DejaVuSans-58"/>
        <path id="DejaVuSans-32"/>
        <path d="M 31.78125 66.40625 
Q 24.171875 66.40625 20.328125 58.90625 
Q 16.5 51.421875 16.5 36.375 
Q 16.5 21.390625 20.328125 13.890625 
Q 24.171875 6.390625 31.78125 6.390625 
Q 39.453125 6.390625 43.28125 13.890625 
Q 47.125 21.390625 47.125 36.375 
Q 47.125 51.421875 43.28125 58.90625 
Q 39.453125 66.40625 31.78125 66.40625 
z
M 31.78125 74.21875 
Q 44.046875 74.21875 50.515625 64.515625 
Q 56.984375 54.828125 56.984375 36.375 
Q 56.984375 17.96875 50.515625 8.265625 
Q 44.046875 -1.421875 31.78125 -1.421875 
Q 19.53125 -1.421875 13.0625 8.265625 
Q 6.59375 17.96875 6.59375 36.375 
Q 6.59375 54.828125 13.0625 64.515625 
Q 19.53125 74.21875 31.78125 74.21875 
z
" id="DejaVuSans-48"/>
       </defs>
       <use xlink:href="#DejaVuSans-85"/>
       <use x="73.193359" xlink:href="#DejaVuSans-110"/>
       <use x="136.572266" xlink:href="#DejaVuSans-110"/>
       <use x="199.951172" xlink:href="#DejaVuSans-97"/>
       <use x="261.230469" xlink:href="#DejaVuSans-109"/>
       <use x="358.642578" xlink:href="#DejaVuSans-101"/>
       <use x="420.166016" xlink:href="#DejaVuSans-100"/>
       <use x="483.642578" xlink:href="#DejaVuSans-58"/>
       <use x="517.333984" xlink:href="#DejaVuSans-32"/>
       <use x="549.121094" xlink:href="#DejaVuSans-48"/>
      </g>
     </g>
    </g>
    <g id="xtick_2">
     <g id="text_2">
      <!-- num_reviews -->
      <g style="fill:#262626;" transform="translate(192.572656 306.401406)rotate(-90)scale(0.11 -0.11)">
       <defs>
        <path d="M 8.5 21.578125 
L 8.5 54.6875 
L 17.484375 54.6875 
L 17.484375 21.921875 
Q 17.484375 14.15625 20.5 10.265625 
Q 23.53125 6.390625 29.59375 6.390625 
Q 36.859375 6.390625 41.078125 11.03125 
Q 45.3125 15.671875 45.3125 23.6875 
L 45.3125 54.6875 
L 54.296875 54.6875 
L 54.296875 0 
L 45.3125 0 
L 45.3125 8.40625 
Q 42.046875 3.421875 37.71875 1 
Q 33.40625 -1.421875 27.6875 -1.421875 
Q 18.265625 -1.421875 13.375 4.4375 
Q 8.5 10.296875 8.5 21.578125 
z
M 31.109375 56 
z
" id="DejaVuSans-117"/>
        <path d="M 50.984375 -16.609375 
L 50.984375 -23.578125 
L -0.984375 -23.578125 
L -0.984375 -16.609375 
z
" id="DejaVuSans-95"/>
        <path d="M 41.109375 46.296875 
Q 39.59375 47.171875 37.8125 47.578125 
Q 36.03125 48 33.890625 48 
Q 26.265625 48 22.1875 43.046875 
Q 18.109375 38.09375 18.109375 28.8125 
L 18.109375 0 
L 9.078125 0 
L 9.078125 54.6875 
L 18.109375 54.6875 
L 18.109375 46.1875 
Q 20.953125 51.171875 25.484375 53.578125 
Q 30.03125 56 36.53125 56 
Q 37.453125 56 38.578125 55.875 
Q 39.703125 55.765625 41.0625 55.515625 
z
" id="DejaVuSans-114"/>
        <path d="M 2.984375 54.6875 
L 12.5 54.6875 
L 29.59375 8.796875 
L 46.6875 54.6875 
L 56.203125 54.6875 
L 35.6875 0 
L 23.484375 0 
z
" id="DejaVuSans-118"/>
        <path d="M 9.421875 54.6875 
L 18.40625 54.6875 
L 18.40625 0 
L 9.421875 0 
z
M 9.421875 75.984375 
L 18.40625 75.984375 
L 18.40625 64.59375 
L 9.421875 64.59375 
z
" id="DejaVuSans-105"/>
        <path d="M 4.203125 54.6875 
L 13.1875 54.6875 
L 24.421875 12.015625 
L 35.59375 54.6875 
L 46.1875 54.6875 
L 57.421875 12.015625 
L 68.609375 54.6875 
L 77.59375 54.6875 
L 63.28125 0 
L 52.6875 0 
L 40.921875 44.828125 
L 29.109375 0 
L 18.5 0 
z
" id="DejaVuSans-119"/>
        <path d="M 44.28125 53.078125 
L 44.28125 44.578125 
Q 40.484375 46.53125 36.375 47.5 
Q 32.28125 48.484375 27.875 48.484375 
Q 21.1875 48.484375 17.84375 46.4375 
Q 14.5 44.390625 14.5 40.28125 
Q 14.5 37.15625 16.890625 35.375 
Q 19.28125 33.59375 26.515625 31.984375 
L 29.59375 31.296875 
Q 39.15625 29.25 43.1875 25.515625 
Q 47.21875 21.78125 47.21875 15.09375 
Q 47.21875 7.46875 41.1875 3.015625 
Q 35.15625 -1.421875 24.609375 -1.421875 
Q 20.21875 -1.421875 15.453125 -0.5625 
Q 10.6875 0.296875 5.421875 2 
L 5.421875 11.28125 
Q 10.40625 8.6875 15.234375 7.390625 
Q 20.0625 6.109375 24.8125 6.109375 
Q 31.15625 6.109375 34.5625 8.28125 
Q 37.984375 10.453125 37.984375 14.40625 
Q 37.984375 18.0625 35.515625 20.015625 
Q 33.0625 21.96875 24.703125 23.78125 
L 21.578125 24.515625 
Q 13.234375 26.265625 9.515625 29.90625 
Q 5.8125 33.546875 5.8125 39.890625 
Q 5.8125 47.609375 11.28125 51.796875 
Q 16.75 56 26.8125 56 
Q 31.78125 56 36.171875 55.265625 
Q 40.578125 54.546875 44.28125 53.078125 
z
" id="DejaVuSans-115"/>
       </defs>
       <use xlink:href="#DejaVuSans-110"/>
       <use x="63.378906" xlink:href="#DejaVuSans-117"/>
       <use x="126.757812" xlink:href="#DejaVuSans-109"/>
       <use x="224.169922" xlink:href="#DejaVuSans-95"/>
       <use x="274.169922" xlink:href="#DejaVuSans-114"/>
       <use x="313.033203" xlink:href="#DejaVuSans-101"/>
       <use x="374.556641" xlink:href="#DejaVuSans-118"/>
       <use x="433.736328" xlink:href="#DejaVuSans-105"/>
       <use x="461.519531" xlink:href="#DejaVuSans-101"/>
       <use x="523.042969" xlink:href="#DejaVuSans-119"/>
       <use x="604.830078" xlink:href="#DejaVuSans-115"/>
      </g>
     </g>
    </g>
    <g id="xtick_3">
     <g id="text_3">
      <!-- num_ratings -->
      <g style="fill:#262626;" transform="translate(226.052656 302.613281)rotate(-90)scale(0.11 -0.11)">
       <defs>
        <path d="M 18.3125 70.21875 
L 18.3125 54.6875 
L 36.8125 54.6875 
L 36.8125 47.703125 
L 18.3125 47.703125 
L 18.3125 18.015625 
Q 18.3125 11.328125 20.140625 9.421875 
Q 21.96875 7.515625 27.59375 7.515625 
L 36.8125 7.515625 
L 36.8125 0 
L 27.59375 0 
Q 17.1875 0 13.234375 3.875 
Q 9.28125 7.765625 9.28125 18.015625 
L 9.28125 47.703125 
L 2.6875 47.703125 
L 2.6875 54.6875 
L 9.28125 54.6875 
L 9.28125 70.21875 
z
" id="DejaVuSans-116"/>
        <path d="M 45.40625 27.984375 
Q 45.40625 37.75 41.375 43.109375 
Q 37.359375 48.484375 30.078125 48.484375 
Q 22.859375 48.484375 18.828125 43.109375 
Q 14.796875 37.75 14.796875 27.984375 
Q 14.796875 18.265625 18.828125 12.890625 
Q 22.859375 7.515625 30.078125 7.515625 
Q 37.359375 7.515625 41.375 12.890625 
Q 45.40625 18.265625 45.40625 27.984375 
z
M 54.390625 6.78125 
Q 54.390625 -7.171875 48.1875 -13.984375 
Q 42 -20.796875 29.203125 -20.796875 
Q 24.46875 -20.796875 20.265625 -20.09375 
Q 16.0625 -19.390625 12.109375 -17.921875 
L 12.109375 -9.1875 
Q 16.0625 -11.328125 19.921875 -12.34375 
Q 23.78125 -13.375 27.78125 -13.375 
Q 36.625 -13.375 41.015625 -8.765625 
Q 45.40625 -4.15625 45.40625 5.171875 
L 45.40625 9.625 
Q 42.625 4.78125 38.28125 2.390625 
Q 33.9375 0 27.875 0 
Q 17.828125 0 11.671875 7.65625 
Q 5.515625 15.328125 5.515625 27.984375 
Q 5.515625 40.671875 11.671875 48.328125 
Q 17.828125 56 27.875 56 
Q 33.9375 56 38.28125 53.609375 
Q 42.625 51.21875 45.40625 46.390625 
L 45.40625 54.6875 
L 54.390625 54.6875 
z
" id="DejaVuSans-103"/>
       </defs>
       <use xlink:href="#DejaVuSans-110"/>
       <use x="63.378906" xlink:href="#DejaVuSans-117"/>
       <use x="126.757812" xlink:href="#DejaVuSans-109"/>
       <use x="224.169922" xlink:href="#DejaVuSans-95"/>
       <use x="274.169922" xlink:href="#DejaVuSans-114"/>
       <use x="315.283203" xlink:href="#DejaVuSans-97"/>
       <use x="376.5625" xlink:href="#DejaVuSans-116"/>
       <use x="415.771484" xlink:href="#DejaVuSans-105"/>
       <use x="443.554688" xlink:href="#DejaVuSans-110"/>
       <use x="506.933594" xlink:href="#DejaVuSans-103"/>
       <use x="570.410156" xlink:href="#DejaVuSans-115"/>
      </g>
     </g>
    </g>
    <g id="xtick_4">
     <g id="text_4">
      <!-- avg_rating -->
      <g style="fill:#262626;" transform="translate(259.532656 292.460625)rotate(-90)scale(0.11 -0.11)">
       <use xlink:href="#DejaVuSans-97"/>
       <use x="61.279297" xlink:href="#DejaVuSans-118"/>
       <use x="120.458984" xlink:href="#DejaVuSans-103"/>
       <use x="183.935547" xlink:href="#DejaVuSans-95"/>
       <use x="233.935547" xlink:href="#DejaVuSans-114"/>
       <use x="275.048828" xlink:href="#DejaVuSans-97"/>
       <use x="336.328125" xlink:href="#DejaVuSans-116"/>
       <use x="375.537109" xlink:href="#DejaVuSans-105"/>
       <use x="403.320312" xlink:href="#DejaVuSans-110"/>
       <use x="466.699219" xlink:href="#DejaVuSans-103"/>
      </g>
     </g>
    </g>
    <g id="xtick_5">
     <g id="text_5">
      <!-- num_pages -->
      <g style="fill:#262626;" transform="translate(292.859688 297.503437)rotate(-90)scale(0.11 -0.11)">
       <defs>
        <path d="M 18.109375 8.203125 
L 18.109375 -20.796875 
L 9.078125 -20.796875 
L 9.078125 54.6875 
L 18.109375 54.6875 
L 18.109375 46.390625 
Q 20.953125 51.265625 25.265625 53.625 
Q 29.59375 56 35.59375 56 
Q 45.5625 56 51.78125 48.09375 
Q 58.015625 40.1875 58.015625 27.296875 
Q 58.015625 14.40625 51.78125 6.484375 
Q 45.5625 -1.421875 35.59375 -1.421875 
Q 29.59375 -1.421875 25.265625 0.953125 
Q 20.953125 3.328125 18.109375 8.203125 
z
M 48.6875 27.296875 
Q 48.6875 37.203125 44.609375 42.84375 
Q 40.53125 48.484375 33.40625 48.484375 
Q 26.265625 48.484375 22.1875 42.84375 
Q 18.109375 37.203125 18.109375 27.296875 
Q 18.109375 17.390625 22.1875 11.75 
Q 26.265625 6.109375 33.40625 6.109375 
Q 40.53125 6.109375 44.609375 11.75 
Q 48.6875 17.390625 48.6875 27.296875 
z
" id="DejaVuSans-112"/>
       </defs>
       <use xlink:href="#DejaVuSans-110"/>
       <use x="63.378906" xlink:href="#DejaVuSans-117"/>
       <use x="126.757812" xlink:href="#DejaVuSans-109"/>
       <use x="224.169922" xlink:href="#DejaVuSans-95"/>
       <use x="274.169922" xlink:href="#DejaVuSans-112"/>
       <use x="337.646484" xlink:href="#DejaVuSans-97"/>
       <use x="398.925781" xlink:href="#DejaVuSans-103"/>
       <use x="462.402344" xlink:href="#DejaVuSans-101"/>
       <use x="523.925781" xlink:href="#DejaVuSans-115"/>
      </g>
     </g>
    </g>
    <g id="xtick_6">
     <g id="text_6">
      <!-- original_publish_year -->
      <g style="fill:#262626;" transform="translate(326.492656 350.549219)rotate(-90)scale(0.11 -0.11)">
       <defs>
        <path d="M 30.609375 48.390625 
Q 23.390625 48.390625 19.1875 42.75 
Q 14.984375 37.109375 14.984375 27.296875 
Q 14.984375 17.484375 19.15625 11.84375 
Q 23.34375 6.203125 30.609375 6.203125 
Q 37.796875 6.203125 41.984375 11.859375 
Q 46.1875 17.53125 46.1875 27.296875 
Q 46.1875 37.015625 41.984375 42.703125 
Q 37.796875 48.390625 30.609375 48.390625 
z
M 30.609375 56 
Q 42.328125 56 49.015625 48.375 
Q 55.71875 40.765625 55.71875 27.296875 
Q 55.71875 13.875 49.015625 6.21875 
Q 42.328125 -1.421875 30.609375 -1.421875 
Q 18.84375 -1.421875 12.171875 6.21875 
Q 5.515625 13.875 5.515625 27.296875 
Q 5.515625 40.765625 12.171875 48.375 
Q 18.84375 56 30.609375 56 
z
" id="DejaVuSans-111"/>
        <path d="M 9.421875 75.984375 
L 18.40625 75.984375 
L 18.40625 0 
L 9.421875 0 
z
" id="DejaVuSans-108"/>
        <path d="M 48.6875 27.296875 
Q 48.6875 37.203125 44.609375 42.84375 
Q 40.53125 48.484375 33.40625 48.484375 
Q 26.265625 48.484375 22.1875 42.84375 
Q 18.109375 37.203125 18.109375 27.296875 
Q 18.109375 17.390625 22.1875 11.75 
Q 26.265625 6.109375 33.40625 6.109375 
Q 40.53125 6.109375 44.609375 11.75 
Q 48.6875 17.390625 48.6875 27.296875 
z
M 18.109375 46.390625 
Q 20.953125 51.265625 25.265625 53.625 
Q 29.59375 56 35.59375 56 
Q 45.5625 56 51.78125 48.09375 
Q 58.015625 40.1875 58.015625 27.296875 
Q 58.015625 14.40625 51.78125 6.484375 
Q 45.5625 -1.421875 35.59375 -1.421875 
Q 29.59375 -1.421875 25.265625 0.953125 
Q 20.953125 3.328125 18.109375 8.203125 
L 18.109375 0 
L 9.078125 0 
L 9.078125 75.984375 
L 18.109375 75.984375 
z
" id="DejaVuSans-98"/>
        <path d="M 54.890625 33.015625 
L 54.890625 0 
L 45.90625 0 
L 45.90625 32.71875 
Q 45.90625 40.484375 42.875 44.328125 
Q 39.84375 48.1875 33.796875 48.1875 
Q 26.515625 48.1875 22.3125 43.546875 
Q 18.109375 38.921875 18.109375 30.90625 
L 18.109375 0 
L 9.078125 0 
L 9.078125 75.984375 
L 18.109375 75.984375 
L 18.109375 46.1875 
Q 21.34375 51.125 25.703125 53.5625 
Q 30.078125 56 35.796875 56 
Q 45.21875 56 50.046875 50.171875 
Q 54.890625 44.34375 54.890625 33.015625 
z
" id="DejaVuSans-104"/>
        <path d="M 32.171875 -5.078125 
Q 28.375 -14.84375 24.75 -17.8125 
Q 21.140625 -20.796875 15.09375 -20.796875 
L 7.90625 -20.796875 
L 7.90625 -13.28125 
L 13.1875 -13.28125 
Q 16.890625 -13.28125 18.9375 -11.515625 
Q 21 -9.765625 23.484375 -3.21875 
L 25.09375 0.875 
L 2.984375 54.6875 
L 12.5 54.6875 
L 29.59375 11.921875 
L 46.6875 54.6875 
L 56.203125 54.6875 
z
" id="DejaVuSans-121"/>
       </defs>
       <use xlink:href="#DejaVuSans-111"/>
       <use x="61.181641" xlink:href="#DejaVuSans-114"/>
       <use x="102.294922" xlink:href="#DejaVuSans-105"/>
       <use x="130.078125" xlink:href="#DejaVuSans-103"/>
       <use x="193.554688" xlink:href="#DejaVuSans-105"/>
       <use x="221.337891" xlink:href="#DejaVuSans-110"/>
       <use x="284.716797" xlink:href="#DejaVuSans-97"/>
       <use x="345.996094" xlink:href="#DejaVuSans-108"/>
       <use x="373.779297" xlink:href="#DejaVuSans-95"/>
       <use x="423.779297" xlink:href="#DejaVuSans-112"/>
       <use x="487.255859" xlink:href="#DejaVuSans-117"/>
       <use x="550.634766" xlink:href="#DejaVuSans-98"/>
       <use x="614.111328" xlink:href="#DejaVuSans-108"/>
       <use x="641.894531" xlink:href="#DejaVuSans-105"/>
       <use x="669.677734" xlink:href="#DejaVuSans-115"/>
       <use x="721.777344" xlink:href="#DejaVuSans-104"/>
       <use x="785.15625" xlink:href="#DejaVuSans-95"/>
       <use x="835.15625" xlink:href="#DejaVuSans-121"/>
       <use x="894.335938" xlink:href="#DejaVuSans-101"/>
       <use x="955.859375" xlink:href="#DejaVuSans-97"/>
       <use x="1017.138672" xlink:href="#DejaVuSans-114"/>
      </g>
     </g>
    </g>
    <g id="xtick_7">
     <g id="text_7">
      <!-- series -->
      <g style="fill:#262626;" transform="translate(360.125625 266.715469)rotate(-90)scale(0.11 -0.11)">
       <use xlink:href="#DejaVuSans-115"/>
       <use x="52.099609" xlink:href="#DejaVuSans-101"/>
       <use x="113.623047" xlink:href="#DejaVuSans-114"/>
       <use x="154.736328" xlink:href="#DejaVuSans-105"/>
       <use x="182.519531" xlink:href="#DejaVuSans-101"/>
       <use x="244.042969" xlink:href="#DejaVuSans-115"/>
      </g>
     </g>
    </g>
    <g id="xtick_8">
     <g id="text_8">
      <!-- minmax_norm_ratings -->
      <g style="fill:#262626;" transform="translate(393.452656 356.910312)rotate(-90)scale(0.11 -0.11)">
       <defs>
        <path d="M 54.890625 54.6875 
L 35.109375 28.078125 
L 55.90625 0 
L 45.3125 0 
L 29.390625 21.484375 
L 13.484375 0 
L 2.875 0 
L 24.125 28.609375 
L 4.6875 54.6875 
L 15.28125 54.6875 
L 29.78125 35.203125 
L 44.28125 54.6875 
z
" id="DejaVuSans-120"/>
       </defs>
       <use xlink:href="#DejaVuSans-109"/>
       <use x="97.412109" xlink:href="#DejaVuSans-105"/>
       <use x="125.195312" xlink:href="#DejaVuSans-110"/>
       <use x="188.574219" xlink:href="#DejaVuSans-109"/>
       <use x="285.986328" xlink:href="#DejaVuSans-97"/>
       <use x="347.265625" xlink:href="#DejaVuSans-120"/>
       <use x="406.445312" xlink:href="#DejaVuSans-95"/>
       <use x="456.445312" xlink:href="#DejaVuSans-110"/>
       <use x="519.824219" xlink:href="#DejaVuSans-111"/>
       <use x="581.005859" xlink:href="#DejaVuSans-114"/>
       <use x="620.369141" xlink:href="#DejaVuSans-109"/>
       <use x="717.78125" xlink:href="#DejaVuSans-95"/>
       <use x="767.78125" xlink:href="#DejaVuSans-114"/>
       <use x="808.894531" xlink:href="#DejaVuSans-97"/>
       <use x="870.173828" xlink:href="#DejaVuSans-116"/>
       <use x="909.382812" xlink:href="#DejaVuSans-105"/>
       <use x="937.166016" xlink:href="#DejaVuSans-110"/>
       <use x="1000.544922" xlink:href="#DejaVuSans-103"/>
       <use x="1064.021484" xlink:href="#DejaVuSans-115"/>
      </g>
     </g>
    </g>
    <g id="xtick_9">
     <g id="text_9">
      <!-- mean_norm_ratings -->
      <g style="fill:#262626;" transform="translate(426.932656 343.3975)rotate(-90)scale(0.11 -0.11)">
       <use xlink:href="#DejaVuSans-109"/>
       <use x="97.412109" xlink:href="#DejaVuSans-101"/>
       <use x="158.935547" xlink:href="#DejaVuSans-97"/>
       <use x="220.214844" xlink:href="#DejaVuSans-110"/>
       <use x="283.59375" xlink:href="#DejaVuSans-95"/>
       <use x="333.59375" xlink:href="#DejaVuSans-110"/>
       <use x="396.972656" xlink:href="#DejaVuSans-111"/>
       <use x="458.154297" xlink:href="#DejaVuSans-114"/>
       <use x="497.517578" xlink:href="#DejaVuSans-109"/>
       <use x="594.929688" xlink:href="#DejaVuSans-95"/>
       <use x="644.929688" xlink:href="#DejaVuSans-114"/>
       <use x="686.042969" xlink:href="#DejaVuSans-97"/>
       <use x="747.322266" xlink:href="#DejaVuSans-116"/>
       <use x="786.53125" xlink:href="#DejaVuSans-105"/>
       <use x="814.314453" xlink:href="#DejaVuSans-110"/>
       <use x="877.693359" xlink:href="#DejaVuSans-103"/>
       <use x="941.169922" xlink:href="#DejaVuSans-115"/>
      </g>
     </g>
    </g>
    <g id="xtick_10">
     <g id="text_10">
      <!-- Awards_count -->
      <g style="fill:#262626;" transform="translate(460.412656 310.538437)rotate(-90)scale(0.11 -0.11)">
       <defs>
        <path d="M 34.1875 63.1875 
L 20.796875 26.90625 
L 47.609375 26.90625 
z
M 28.609375 72.90625 
L 39.796875 72.90625 
L 67.578125 0 
L 57.328125 0 
L 50.6875 18.703125 
L 17.828125 18.703125 
L 11.1875 0 
L 0.78125 0 
z
" id="DejaVuSans-65"/>
        <path d="M 48.78125 52.59375 
L 48.78125 44.1875 
Q 44.96875 46.296875 41.140625 47.34375 
Q 37.3125 48.390625 33.40625 48.390625 
Q 24.65625 48.390625 19.8125 42.84375 
Q 14.984375 37.3125 14.984375 27.296875 
Q 14.984375 17.28125 19.8125 11.734375 
Q 24.65625 6.203125 33.40625 6.203125 
Q 37.3125 6.203125 41.140625 7.25 
Q 44.96875 8.296875 48.78125 10.40625 
L 48.78125 2.09375 
Q 45.015625 0.34375 40.984375 -0.53125 
Q 36.96875 -1.421875 32.421875 -1.421875 
Q 20.0625 -1.421875 12.78125 6.34375 
Q 5.515625 14.109375 5.515625 27.296875 
Q 5.515625 40.671875 12.859375 48.328125 
Q 20.21875 56 33.015625 56 
Q 37.15625 56 41.109375 55.140625 
Q 45.0625 54.296875 48.78125 52.59375 
z
" id="DejaVuSans-99"/>
       </defs>
       <use xlink:href="#DejaVuSans-65"/>
       <use x="64.408203" xlink:href="#DejaVuSans-119"/>
       <use x="146.195312" xlink:href="#DejaVuSans-97"/>
       <use x="207.474609" xlink:href="#DejaVuSans-114"/>
       <use x="246.837891" xlink:href="#DejaVuSans-100"/>
       <use x="310.314453" xlink:href="#DejaVuSans-115"/>
       <use x="362.414062" xlink:href="#DejaVuSans-95"/>
       <use x="412.414062" xlink:href="#DejaVuSans-99"/>
       <use x="467.394531" xlink:href="#DejaVuSans-111"/>
       <use x="528.576172" xlink:href="#DejaVuSans-117"/>
       <use x="591.955078" xlink:href="#DejaVuSans-110"/>
       <use x="655.333984" xlink:href="#DejaVuSans-116"/>
      </g>
     </g>
    </g>
   </g>
   <g id="matplotlib.axis_2">
    <g id="ytick_1">
     <g id="text_11">
      <!-- Unnamed: 0 -->
      <g style="fill:#262626;" transform="translate(62.569531 22.251141)scale(0.11 -0.11)">
       <use xlink:href="#DejaVuSans-85"/>
       <use x="73.193359" xlink:href="#DejaVuSans-110"/>
       <use x="136.572266" xlink:href="#DejaVuSans-110"/>
       <use x="199.951172" xlink:href="#DejaVuSans-97"/>
       <use x="261.230469" xlink:href="#DejaVuSans-109"/>
       <use x="358.642578" xlink:href="#DejaVuSans-101"/>
       <use x="420.166016" xlink:href="#DejaVuSans-100"/>
       <use x="483.642578" xlink:href="#DejaVuSans-58"/>
       <use x="517.333984" xlink:href="#DejaVuSans-32"/>
       <use x="549.121094" xlink:href="#DejaVuSans-48"/>
      </g>
     </g>
    </g>
    <g id="ytick_2">
     <g id="text_12">
      <!-- num_reviews -->
      <g style="fill:#262626;" transform="translate(57.708906 43.995141)scale(0.11 -0.11)">
       <use xlink:href="#DejaVuSans-110"/>
       <use x="63.378906" xlink:href="#DejaVuSans-117"/>
       <use x="126.757812" xlink:href="#DejaVuSans-109"/>
       <use x="224.169922" xlink:href="#DejaVuSans-95"/>
       <use x="274.169922" xlink:href="#DejaVuSans-114"/>
       <use x="313.033203" xlink:href="#DejaVuSans-101"/>
       <use x="374.556641" xlink:href="#DejaVuSans-118"/>
       <use x="433.736328" xlink:href="#DejaVuSans-105"/>
       <use x="461.519531" xlink:href="#DejaVuSans-101"/>
       <use x="523.042969" xlink:href="#DejaVuSans-119"/>
       <use x="604.830078" xlink:href="#DejaVuSans-115"/>
      </g>
     </g>
    </g>
    <g id="ytick_3">
     <g id="text_13">
      <!-- num_ratings -->
      <g style="fill:#262626;" transform="translate(61.497031 65.739141)scale(0.11 -0.11)">
       <use xlink:href="#DejaVuSans-110"/>
       <use x="63.378906" xlink:href="#DejaVuSans-117"/>
       <use x="126.757812" xlink:href="#DejaVuSans-109"/>
       <use x="224.169922" xlink:href="#DejaVuSans-95"/>
       <use x="274.169922" xlink:href="#DejaVuSans-114"/>
       <use x="315.283203" xlink:href="#DejaVuSans-97"/>
       <use x="376.5625" xlink:href="#DejaVuSans-116"/>
       <use x="415.771484" xlink:href="#DejaVuSans-105"/>
       <use x="443.554688" xlink:href="#DejaVuSans-110"/>
       <use x="506.933594" xlink:href="#DejaVuSans-103"/>
       <use x="570.410156" xlink:href="#DejaVuSans-115"/>
      </g>
     </g>
    </g>
    <g id="ytick_4">
     <g id="text_14">
      <!-- avg_rating -->
      <g style="fill:#262626;" transform="translate(71.649687 87.483141)scale(0.11 -0.11)">
       <use xlink:href="#DejaVuSans-97"/>
       <use x="61.279297" xlink:href="#DejaVuSans-118"/>
       <use x="120.458984" xlink:href="#DejaVuSans-103"/>
       <use x="183.935547" xlink:href="#DejaVuSans-95"/>
       <use x="233.935547" xlink:href="#DejaVuSans-114"/>
       <use x="275.048828" xlink:href="#DejaVuSans-97"/>
       <use x="336.328125" xlink:href="#DejaVuSans-116"/>
       <use x="375.537109" xlink:href="#DejaVuSans-105"/>
       <use x="403.320312" xlink:href="#DejaVuSans-110"/>
       <use x="466.699219" xlink:href="#DejaVuSans-103"/>
      </g>
     </g>
    </g>
    <g id="ytick_5">
     <g id="text_15">
      <!-- num_pages -->
      <g style="fill:#262626;" transform="translate(66.606875 109.074172)scale(0.11 -0.11)">
       <use xlink:href="#DejaVuSans-110"/>
       <use x="63.378906" xlink:href="#DejaVuSans-117"/>
       <use x="126.757812" xlink:href="#DejaVuSans-109"/>
       <use x="224.169922" xlink:href="#DejaVuSans-95"/>
       <use x="274.169922" xlink:href="#DejaVuSans-112"/>
       <use x="337.646484" xlink:href="#DejaVuSans-97"/>
       <use x="398.925781" xlink:href="#DejaVuSans-103"/>
       <use x="462.402344" xlink:href="#DejaVuSans-101"/>
       <use x="523.925781" xlink:href="#DejaVuSans-115"/>
      </g>
     </g>
    </g>
    <g id="ytick_6">
     <g id="text_16">
      <!-- original_publish_year -->
      <g style="fill:#262626;" transform="translate(13.561094 130.971141)scale(0.11 -0.11)">
       <use xlink:href="#DejaVuSans-111"/>
       <use x="61.181641" xlink:href="#DejaVuSans-114"/>
       <use x="102.294922" xlink:href="#DejaVuSans-105"/>
       <use x="130.078125" xlink:href="#DejaVuSans-103"/>
       <use x="193.554688" xlink:href="#DejaVuSans-105"/>
       <use x="221.337891" xlink:href="#DejaVuSans-110"/>
       <use x="284.716797" xlink:href="#DejaVuSans-97"/>
       <use x="345.996094" xlink:href="#DejaVuSans-108"/>
       <use x="373.779297" xlink:href="#DejaVuSans-95"/>
       <use x="423.779297" xlink:href="#DejaVuSans-112"/>
       <use x="487.255859" xlink:href="#DejaVuSans-117"/>
       <use x="550.634766" xlink:href="#DejaVuSans-98"/>
       <use x="614.111328" xlink:href="#DejaVuSans-108"/>
       <use x="641.894531" xlink:href="#DejaVuSans-105"/>
       <use x="669.677734" xlink:href="#DejaVuSans-115"/>
       <use x="721.777344" xlink:href="#DejaVuSans-104"/>
       <use x="785.15625" xlink:href="#DejaVuSans-95"/>
       <use x="835.15625" xlink:href="#DejaVuSans-121"/>
       <use x="894.335938" xlink:href="#DejaVuSans-101"/>
       <use x="955.859375" xlink:href="#DejaVuSans-97"/>
       <use x="1017.138672" xlink:href="#DejaVuSans-114"/>
      </g>
     </g>
    </g>
    <g id="ytick_7">
     <g id="text_17">
      <!-- series -->
      <g style="fill:#262626;" transform="translate(97.394844 152.715141)scale(0.11 -0.11)">
       <use xlink:href="#DejaVuSans-115"/>
       <use x="52.099609" xlink:href="#DejaVuSans-101"/>
       <use x="113.623047" xlink:href="#DejaVuSans-114"/>
       <use x="154.736328" xlink:href="#DejaVuSans-105"/>
       <use x="182.519531" xlink:href="#DejaVuSans-101"/>
       <use x="244.042969" xlink:href="#DejaVuSans-115"/>
      </g>
     </g>
    </g>
    <g id="ytick_8">
     <g id="text_18">
      <!-- minmax_norm_ratings -->
      <g style="fill:#262626;" transform="translate(7.2 174.459141)scale(0.11 -0.11)">
       <use xlink:href="#DejaVuSans-109"/>
       <use x="97.412109" xlink:href="#DejaVuSans-105"/>
       <use x="125.195312" xlink:href="#DejaVuSans-110"/>
       <use x="188.574219" xlink:href="#DejaVuSans-109"/>
       <use x="285.986328" xlink:href="#DejaVuSans-97"/>
       <use x="347.265625" xlink:href="#DejaVuSans-120"/>
       <use x="406.445312" xlink:href="#DejaVuSans-95"/>
       <use x="456.445312" xlink:href="#DejaVuSans-110"/>
       <use x="519.824219" xlink:href="#DejaVuSans-111"/>
       <use x="581.005859" xlink:href="#DejaVuSans-114"/>
       <use x="620.369141" xlink:href="#DejaVuSans-109"/>
       <use x="717.78125" xlink:href="#DejaVuSans-95"/>
       <use x="767.78125" xlink:href="#DejaVuSans-114"/>
       <use x="808.894531" xlink:href="#DejaVuSans-97"/>
       <use x="870.173828" xlink:href="#DejaVuSans-116"/>
       <use x="909.382812" xlink:href="#DejaVuSans-105"/>
       <use x="937.166016" xlink:href="#DejaVuSans-110"/>
       <use x="1000.544922" xlink:href="#DejaVuSans-103"/>
       <use x="1064.021484" xlink:href="#DejaVuSans-115"/>
      </g>
     </g>
    </g>
    <g id="ytick_9">
     <g id="text_19">
      <!-- mean_norm_ratings -->
      <g style="fill:#262626;" transform="translate(20.712812 196.203141)scale(0.11 -0.11)">
       <use xlink:href="#DejaVuSans-109"/>
       <use x="97.412109" xlink:href="#DejaVuSans-101"/>
       <use x="158.935547" xlink:href="#DejaVuSans-97"/>
       <use x="220.214844" xlink:href="#DejaVuSans-110"/>
       <use x="283.59375" xlink:href="#DejaVuSans-95"/>
       <use x="333.59375" xlink:href="#DejaVuSans-110"/>
       <use x="396.972656" xlink:href="#DejaVuSans-111"/>
       <use x="458.154297" xlink:href="#DejaVuSans-114"/>
       <use x="497.517578" xlink:href="#DejaVuSans-109"/>
       <use x="594.929688" xlink:href="#DejaVuSans-95"/>
       <use x="644.929688" xlink:href="#DejaVuSans-114"/>
       <use x="686.042969" xlink:href="#DejaVuSans-97"/>
       <use x="747.322266" xlink:href="#DejaVuSans-116"/>
       <use x="786.53125" xlink:href="#DejaVuSans-105"/>
       <use x="814.314453" xlink:href="#DejaVuSans-110"/>
       <use x="877.693359" xlink:href="#DejaVuSans-103"/>
       <use x="941.169922" xlink:href="#DejaVuSans-115"/>
      </g>
     </g>
    </g>
    <g id="ytick_10">
     <g id="text_20">
      <!-- Awards_count -->
      <g style="fill:#262626;" transform="translate(53.571875 217.947141)scale(0.11 -0.11)">
       <use xlink:href="#DejaVuSans-65"/>
       <use x="64.408203" xlink:href="#DejaVuSans-119"/>
       <use x="146.195312" xlink:href="#DejaVuSans-97"/>
       <use x="207.474609" xlink:href="#DejaVuSans-114"/>
       <use x="246.837891" xlink:href="#DejaVuSans-100"/>
       <use x="310.314453" xlink:href="#DejaVuSans-115"/>
       <use x="362.414062" xlink:href="#DejaVuSans-95"/>
       <use x="412.414062" xlink:href="#DejaVuSans-99"/>
       <use x="467.394531" xlink:href="#DejaVuSans-111"/>
       <use x="528.576172" xlink:href="#DejaVuSans-117"/>
       <use x="591.955078" xlink:href="#DejaVuSans-110"/>
       <use x="655.333984" xlink:href="#DejaVuSans-116"/>
      </g>
     </g>
    </g>
   </g>
   <g id="QuadMesh_1">
    <path clip-path="url(#pe567fd323a)" d="M 139.470313 7.2 
L 172.950313 7.2 
L 172.950313 28.944 
L 139.470313 28.944 
L 139.470313 7.2 
" style="fill:#b40426;"/>
    <path clip-path="url(#pe567fd323a)" d="M 172.950313 7.2 
L 206.430313 7.2 
L 206.430313 28.944 
L 172.950313 28.944 
L 172.950313 7.2 
" style="fill:#485fd1;"/>
    <path clip-path="url(#pe567fd323a)" d="M 206.430313 7.2 
L 239.910313 7.2 
L 239.910313 28.944 
L 206.430313 28.944 
L 206.430313 7.2 
" style="fill:#4f69d9;"/>
    <path clip-path="url(#pe567fd323a)" d="M 239.910313 7.2 
L 273.390313 7.2 
L 273.390313 28.944 
L 239.910313 28.944 
L 239.910313 7.2 
" style="fill:#4b64d5;"/>
    <path clip-path="url(#pe567fd323a)" d="M 273.390313 7.2 
L 306.870313 7.2 
L 306.870313 28.944 
L 273.390313 28.944 
L 273.390313 7.2 
" style="fill:#3b4cc0;"/>
    <path clip-path="url(#pe567fd323a)" d="M 306.870313 7.2 
L 340.350313 7.2 
L 340.350313 28.944 
L 306.870313 28.944 
L 306.870313 7.2 
" style="fill:#7ea1fa;"/>
    <path clip-path="url(#pe567fd323a)" d="M 340.350313 7.2 
L 373.830313 7.2 
L 373.830313 28.944 
L 340.350313 28.944 
L 340.350313 7.2 
" style="fill:#688aef;"/>
    <path clip-path="url(#pe567fd323a)" d="M 373.830313 7.2 
L 407.310313 7.2 
L 407.310313 28.944 
L 373.830313 28.944 
L 373.830313 7.2 
" style="fill:#4b64d5;"/>
    <path clip-path="url(#pe567fd323a)" d="M 407.310313 7.2 
L 440.790313 7.2 
L 440.790313 28.944 
L 407.310313 28.944 
L 407.310313 7.2 
" style="fill:#4b64d5;"/>
    <path clip-path="url(#pe567fd323a)" d="M 440.790313 7.2 
L 474.270313 7.2 
L 474.270313 28.944 
L 440.790313 28.944 
L 440.790313 7.2 
" style="fill:#3d50c3;"/>
    <path clip-path="url(#pe567fd323a)" d="M 139.470313 28.944 
L 172.950313 28.944 
L 172.950313 50.688 
L 139.470313 50.688 
L 139.470313 28.944 
" style="fill:#485fd1;"/>
    <path clip-path="url(#pe567fd323a)" d="M 172.950313 28.944 
L 206.430313 28.944 
L 206.430313 50.688 
L 172.950313 50.688 
L 172.950313 28.944 
" style="fill:#b40426;"/>
    <path clip-path="url(#pe567fd323a)" d="M 206.430313 28.944 
L 239.910313 28.944 
L 239.910313 50.688 
L 206.430313 50.688 
L 206.430313 28.944 
" style="fill:#dc5d4a;"/>
    <path clip-path="url(#pe567fd323a)" d="M 239.910313 28.944 
L 273.390313 28.944 
L 273.390313 50.688 
L 239.910313 50.688 
L 239.910313 28.944 
" style="fill:#7ea1fa;"/>
    <path clip-path="url(#pe567fd323a)" d="M 273.390313 28.944 
L 306.870313 28.944 
L 306.870313 50.688 
L 273.390313 50.688 
L 273.390313 28.944 
" style="fill:#5e7de7;"/>
    <path clip-path="url(#pe567fd323a)" d="M 306.870313 28.944 
L 340.350313 28.944 
L 340.350313 50.688 
L 306.870313 50.688 
L 306.870313 28.944 
" style="fill:#7b9ff9;"/>
    <path clip-path="url(#pe567fd323a)" d="M 340.350313 28.944 
L 373.830313 28.944 
L 373.830313 50.688 
L 340.350313 50.688 
L 340.350313 28.944 
" style="fill:#516ddb;"/>
    <path clip-path="url(#pe567fd323a)" d="M 373.830313 28.944 
L 407.310313 28.944 
L 407.310313 50.688 
L 373.830313 50.688 
L 373.830313 28.944 
" style="fill:#7ea1fa;"/>
    <path clip-path="url(#pe567fd323a)" d="M 407.310313 28.944 
L 440.790313 28.944 
L 440.790313 50.688 
L 407.310313 50.688 
L 407.310313 28.944 
" style="fill:#7ea1fa;"/>
    <path clip-path="url(#pe567fd323a)" d="M 440.790313 28.944 
L 474.270313 28.944 
L 474.270313 50.688 
L 440.790313 50.688 
L 440.790313 28.944 
" style="fill:#d2dbe8;"/>
    <path clip-path="url(#pe567fd323a)" d="M 139.470313 50.688 
L 172.950313 50.688 
L 172.950313 72.432 
L 139.470313 72.432 
L 139.470313 50.688 
" style="fill:#4f69d9;"/>
    <path clip-path="url(#pe567fd323a)" d="M 172.950313 50.688 
L 206.430313 50.688 
L 206.430313 72.432 
L 172.950313 72.432 
L 172.950313 50.688 
" style="fill:#dc5d4a;"/>
    <path clip-path="url(#pe567fd323a)" d="M 206.430313 50.688 
L 239.910313 50.688 
L 239.910313 72.432 
L 206.430313 72.432 
L 206.430313 50.688 
" style="fill:#b40426;"/>
    <path clip-path="url(#pe567fd323a)" d="M 239.910313 50.688 
L 273.390313 50.688 
L 273.390313 72.432 
L 239.910313 72.432 
L 239.910313 50.688 
" style="fill:#7a9df8;"/>
    <path clip-path="url(#pe567fd323a)" d="M 273.390313 50.688 
L 306.870313 50.688 
L 306.870313 72.432 
L 273.390313 72.432 
L 273.390313 50.688 
" style="fill:#5d7ce6;"/>
    <path clip-path="url(#pe567fd323a)" d="M 306.870313 50.688 
L 340.350313 50.688 
L 340.350313 72.432 
L 306.870313 72.432 
L 306.870313 50.688 
" style="fill:#6282ea;"/>
    <path clip-path="url(#pe567fd323a)" d="M 340.350313 50.688 
L 373.830313 50.688 
L 373.830313 72.432 
L 340.350313 72.432 
L 340.350313 50.688 
" style="fill:#5d7ce6;"/>
    <path clip-path="url(#pe567fd323a)" d="M 373.830313 50.688 
L 407.310313 50.688 
L 407.310313 72.432 
L 373.830313 72.432 
L 373.830313 50.688 
" style="fill:#7a9df8;"/>
    <path clip-path="url(#pe567fd323a)" d="M 407.310313 50.688 
L 440.790313 50.688 
L 440.790313 72.432 
L 407.310313 72.432 
L 407.310313 50.688 
" style="fill:#7a9df8;"/>
    <path clip-path="url(#pe567fd323a)" d="M 440.790313 50.688 
L 474.270313 50.688 
L 474.270313 72.432 
L 440.790313 72.432 
L 440.790313 50.688 
" style="fill:#bad0f8;"/>
    <path clip-path="url(#pe567fd323a)" d="M 139.470313 72.432 
L 172.950313 72.432 
L 172.950313 94.176 
L 139.470313 94.176 
L 139.470313 72.432 
" style="fill:#4b64d5;"/>
    <path clip-path="url(#pe567fd323a)" d="M 172.950313 72.432 
L 206.430313 72.432 
L 206.430313 94.176 
L 172.950313 94.176 
L 172.950313 72.432 
" style="fill:#7ea1fa;"/>
    <path clip-path="url(#pe567fd323a)" d="M 206.430313 72.432 
L 239.910313 72.432 
L 239.910313 94.176 
L 206.430313 94.176 
L 206.430313 72.432 
" style="fill:#7a9df8;"/>
    <path clip-path="url(#pe567fd323a)" d="M 239.910313 72.432 
L 273.390313 72.432 
L 273.390313 94.176 
L 239.910313 94.176 
L 239.910313 72.432 
" style="fill:#b40426;"/>
    <path clip-path="url(#pe567fd323a)" d="M 273.390313 72.432 
L 306.870313 72.432 
L 306.870313 94.176 
L 273.390313 94.176 
L 273.390313 72.432 
" style="fill:#93b5fe;"/>
    <path clip-path="url(#pe567fd323a)" d="M 306.870313 72.432 
L 340.350313 72.432 
L 340.350313 94.176 
L 306.870313 94.176 
L 306.870313 72.432 
" style="fill:#b3cdfb;"/>
    <path clip-path="url(#pe567fd323a)" d="M 340.350313 72.432 
L 373.830313 72.432 
L 373.830313 94.176 
L 340.350313 94.176 
L 340.350313 72.432 
" style="fill:#4257c9;"/>
    <path clip-path="url(#pe567fd323a)" d="M 373.830313 72.432 
L 407.310313 72.432 
L 407.310313 94.176 
L 373.830313 94.176 
L 373.830313 72.432 
" style="fill:#b40426;"/>
    <path clip-path="url(#pe567fd323a)" d="M 407.310313 72.432 
L 440.790313 72.432 
L 440.790313 94.176 
L 407.310313 94.176 
L 407.310313 72.432 
" style="fill:#b40426;"/>
    <path clip-path="url(#pe567fd323a)" d="M 440.790313 72.432 
L 474.270313 72.432 
L 474.270313 94.176 
L 440.790313 94.176 
L 440.790313 72.432 
" style="fill:#7295f4;"/>
    <path clip-path="url(#pe567fd323a)" d="M 139.470313 94.176 
L 172.950313 94.176 
L 172.950313 115.92 
L 139.470313 115.92 
L 139.470313 94.176 
" style="fill:#3b4cc0;"/>
    <path clip-path="url(#pe567fd323a)" d="M 172.950313 94.176 
L 206.430313 94.176 
L 206.430313 115.92 
L 172.950313 115.92 
L 172.950313 94.176 
" style="fill:#5e7de7;"/>
    <path clip-path="url(#pe567fd323a)" d="M 206.430313 94.176 
L 239.910313 94.176 
L 239.910313 115.92 
L 206.430313 115.92 
L 206.430313 94.176 
" style="fill:#5d7ce6;"/>
    <path clip-path="url(#pe567fd323a)" d="M 239.910313 94.176 
L 273.390313 94.176 
L 273.390313 115.92 
L 239.910313 115.92 
L 239.910313 94.176 
" style="fill:#93b5fe;"/>
    <path clip-path="url(#pe567fd323a)" d="M 273.390313 94.176 
L 306.870313 94.176 
L 306.870313 115.92 
L 273.390313 115.92 
L 273.390313 94.176 
" style="fill:#b40426;"/>
    <path clip-path="url(#pe567fd323a)" d="M 306.870313 94.176 
L 340.350313 94.176 
L 340.350313 115.92 
L 306.870313 115.92 
L 306.870313 94.176 
" style="fill:#6384eb;"/>
    <path clip-path="url(#pe567fd323a)" d="M 340.350313 94.176 
L 373.830313 94.176 
L 373.830313 115.92 
L 340.350313 115.92 
L 340.350313 94.176 
" style="fill:#7da0f9;"/>
    <path clip-path="url(#pe567fd323a)" d="M 373.830313 94.176 
L 407.310313 94.176 
L 407.310313 115.92 
L 373.830313 115.92 
L 373.830313 94.176 
" style="fill:#93b5fe;"/>
    <path clip-path="url(#pe567fd323a)" d="M 407.310313 94.176 
L 440.790313 94.176 
L 440.790313 115.92 
L 407.310313 115.92 
L 407.310313 94.176 
" style="fill:#93b5fe;"/>
    <path clip-path="url(#pe567fd323a)" d="M 440.790313 94.176 
L 474.270313 94.176 
L 474.270313 115.92 
L 440.790313 115.92 
L 440.790313 94.176 
" style="fill:#6c8ff1;"/>
    <path clip-path="url(#pe567fd323a)" d="M 139.470313 115.92 
L 172.950313 115.92 
L 172.950313 137.664 
L 139.470313 137.664 
L 139.470313 115.92 
" style="fill:#7ea1fa;"/>
    <path clip-path="url(#pe567fd323a)" d="M 172.950313 115.92 
L 206.430313 115.92 
L 206.430313 137.664 
L 172.950313 137.664 
L 172.950313 115.92 
" style="fill:#7b9ff9;"/>
    <path clip-path="url(#pe567fd323a)" d="M 206.430313 115.92 
L 239.910313 115.92 
L 239.910313 137.664 
L 206.430313 137.664 
L 206.430313 115.92 
" style="fill:#6282ea;"/>
    <path clip-path="url(#pe567fd323a)" d="M 239.910313 115.92 
L 273.390313 115.92 
L 273.390313 137.664 
L 239.910313 137.664 
L 239.910313 115.92 
" style="fill:#b3cdfb;"/>
    <path clip-path="url(#pe567fd323a)" d="M 273.390313 115.92 
L 306.870313 115.92 
L 306.870313 137.664 
L 273.390313 137.664 
L 273.390313 115.92 
" style="fill:#6384eb;"/>
    <path clip-path="url(#pe567fd323a)" d="M 306.870313 115.92 
L 340.350313 115.92 
L 340.350313 137.664 
L 306.870313 137.664 
L 306.870313 115.92 
" style="fill:#b40426;"/>
    <path clip-path="url(#pe567fd323a)" d="M 340.350313 115.92 
L 373.830313 115.92 
L 373.830313 137.664 
L 340.350313 137.664 
L 340.350313 115.92 
" style="fill:#3d50c3;"/>
    <path clip-path="url(#pe567fd323a)" d="M 373.830313 115.92 
L 407.310313 115.92 
L 407.310313 137.664 
L 373.830313 137.664 
L 373.830313 115.92 
" style="fill:#b3cdfb;"/>
    <path clip-path="url(#pe567fd323a)" d="M 407.310313 115.92 
L 440.790313 115.92 
L 440.790313 137.664 
L 407.310313 137.664 
L 407.310313 115.92 
" style="fill:#b3cdfb;"/>
    <path clip-path="url(#pe567fd323a)" d="M 440.790313 115.92 
L 474.270313 115.92 
L 474.270313 137.664 
L 440.790313 137.664 
L 440.790313 115.92 
" style="fill:#88abfd;"/>
    <path clip-path="url(#pe567fd323a)" d="M 139.470313 137.664 
L 172.950313 137.664 
L 172.950313 159.408 
L 139.470313 159.408 
L 139.470313 137.664 
" style="fill:#688aef;"/>
    <path clip-path="url(#pe567fd323a)" d="M 172.950313 137.664 
L 206.430313 137.664 
L 206.430313 159.408 
L 172.950313 159.408 
L 172.950313 137.664 
" style="fill:#516ddb;"/>
    <path clip-path="url(#pe567fd323a)" d="M 206.430313 137.664 
L 239.910313 137.664 
L 239.910313 159.408 
L 206.430313 159.408 
L 206.430313 137.664 
" style="fill:#5d7ce6;"/>
    <path clip-path="url(#pe567fd323a)" d="M 239.910313 137.664 
L 273.390313 137.664 
L 273.390313 159.408 
L 239.910313 159.408 
L 239.910313 137.664 
" style="fill:#4257c9;"/>
    <path clip-path="url(#pe567fd323a)" d="M 273.390313 137.664 
L 306.870313 137.664 
L 306.870313 159.408 
L 273.390313 159.408 
L 273.390313 137.664 
" style="fill:#7da0f9;"/>
    <path clip-path="url(#pe567fd323a)" d="M 306.870313 137.664 
L 340.350313 137.664 
L 340.350313 159.408 
L 306.870313 159.408 
L 306.870313 137.664 
" style="fill:#3d50c3;"/>
    <path clip-path="url(#pe567fd323a)" d="M 340.350313 137.664 
L 373.830313 137.664 
L 373.830313 159.408 
L 340.350313 159.408 
L 340.350313 137.664 
" style="fill:#b40426;"/>
    <path clip-path="url(#pe567fd323a)" d="M 373.830313 137.664 
L 407.310313 137.664 
L 407.310313 159.408 
L 373.830313 159.408 
L 373.830313 137.664 
" style="fill:#4257c9;"/>
    <path clip-path="url(#pe567fd323a)" d="M 407.310313 137.664 
L 440.790313 137.664 
L 440.790313 159.408 
L 407.310313 159.408 
L 407.310313 137.664 
" style="fill:#4257c9;"/>
    <path clip-path="url(#pe567fd323a)" d="M 440.790313 137.664 
L 474.270313 137.664 
L 474.270313 159.408 
L 440.790313 159.408 
L 440.790313 137.664 
" style="fill:#3e51c5;"/>
    <path clip-path="url(#pe567fd323a)" d="M 139.470313 159.408 
L 172.950313 159.408 
L 172.950313 181.152 
L 139.470313 181.152 
L 139.470313 159.408 
" style="fill:#4b64d5;"/>
    <path clip-path="url(#pe567fd323a)" d="M 172.950313 159.408 
L 206.430313 159.408 
L 206.430313 181.152 
L 172.950313 181.152 
L 172.950313 159.408 
" style="fill:#7ea1fa;"/>
    <path clip-path="url(#pe567fd323a)" d="M 206.430313 159.408 
L 239.910313 159.408 
L 239.910313 181.152 
L 206.430313 181.152 
L 206.430313 159.408 
" style="fill:#7a9df8;"/>
    <path clip-path="url(#pe567fd323a)" d="M 239.910313 159.408 
L 273.390313 159.408 
L 273.390313 181.152 
L 239.910313 181.152 
L 239.910313 159.408 
" style="fill:#b40426;"/>
    <path clip-path="url(#pe567fd323a)" d="M 273.390313 159.408 
L 306.870313 159.408 
L 306.870313 181.152 
L 273.390313 181.152 
L 273.390313 159.408 
" style="fill:#93b5fe;"/>
    <path clip-path="url(#pe567fd323a)" d="M 306.870313 159.408 
L 340.350313 159.408 
L 340.350313 181.152 
L 306.870313 181.152 
L 306.870313 159.408 
" style="fill:#b3cdfb;"/>
    <path clip-path="url(#pe567fd323a)" d="M 340.350313 159.408 
L 373.830313 159.408 
L 373.830313 181.152 
L 340.350313 181.152 
L 340.350313 159.408 
" style="fill:#4257c9;"/>
    <path clip-path="url(#pe567fd323a)" d="M 373.830313 159.408 
L 407.310313 159.408 
L 407.310313 181.152 
L 373.830313 181.152 
L 373.830313 159.408 
" style="fill:#b40426;"/>
    <path clip-path="url(#pe567fd323a)" d="M 407.310313 159.408 
L 440.790313 159.408 
L 440.790313 181.152 
L 407.310313 181.152 
L 407.310313 159.408 
" style="fill:#b40426;"/>
    <path clip-path="url(#pe567fd323a)" d="M 440.790313 159.408 
L 474.270313 159.408 
L 474.270313 181.152 
L 440.790313 181.152 
L 440.790313 159.408 
" style="fill:#7295f4;"/>
    <path clip-path="url(#pe567fd323a)" d="M 139.470313 181.152 
L 172.950313 181.152 
L 172.950313 202.896 
L 139.470313 202.896 
L 139.470313 181.152 
" style="fill:#4b64d5;"/>
    <path clip-path="url(#pe567fd323a)" d="M 172.950313 181.152 
L 206.430313 181.152 
L 206.430313 202.896 
L 172.950313 202.896 
L 172.950313 181.152 
" style="fill:#7ea1fa;"/>
    <path clip-path="url(#pe567fd323a)" d="M 206.430313 181.152 
L 239.910313 181.152 
L 239.910313 202.896 
L 206.430313 202.896 
L 206.430313 181.152 
" style="fill:#7a9df8;"/>
    <path clip-path="url(#pe567fd323a)" d="M 239.910313 181.152 
L 273.390313 181.152 
L 273.390313 202.896 
L 239.910313 202.896 
L 239.910313 181.152 
" style="fill:#b40426;"/>
    <path clip-path="url(#pe567fd323a)" d="M 273.390313 181.152 
L 306.870313 181.152 
L 306.870313 202.896 
L 273.390313 202.896 
L 273.390313 181.152 
" style="fill:#93b5fe;"/>
    <path clip-path="url(#pe567fd323a)" d="M 306.870313 181.152 
L 340.350313 181.152 
L 340.350313 202.896 
L 306.870313 202.896 
L 306.870313 181.152 
" style="fill:#b3cdfb;"/>
    <path clip-path="url(#pe567fd323a)" d="M 340.350313 181.152 
L 373.830313 181.152 
L 373.830313 202.896 
L 340.350313 202.896 
L 340.350313 181.152 
" style="fill:#4257c9;"/>
    <path clip-path="url(#pe567fd323a)" d="M 373.830313 181.152 
L 407.310313 181.152 
L 407.310313 202.896 
L 373.830313 202.896 
L 373.830313 181.152 
" style="fill:#b40426;"/>
    <path clip-path="url(#pe567fd323a)" d="M 407.310313 181.152 
L 440.790313 181.152 
L 440.790313 202.896 
L 407.310313 202.896 
L 407.310313 181.152 
" style="fill:#b40426;"/>
    <path clip-path="url(#pe567fd323a)" d="M 440.790313 181.152 
L 474.270313 181.152 
L 474.270313 202.896 
L 440.790313 202.896 
L 440.790313 181.152 
" style="fill:#7295f4;"/>
    <path clip-path="url(#pe567fd323a)" d="M 139.470313 202.896 
L 172.950313 202.896 
L 172.950313 224.64 
L 139.470313 224.64 
L 139.470313 202.896 
" style="fill:#3d50c3;"/>
    <path clip-path="url(#pe567fd323a)" d="M 172.950313 202.896 
L 206.430313 202.896 
L 206.430313 224.64 
L 172.950313 224.64 
L 172.950313 202.896 
" style="fill:#d2dbe8;"/>
    <path clip-path="url(#pe567fd323a)" d="M 206.430313 202.896 
L 239.910313 202.896 
L 239.910313 224.64 
L 206.430313 224.64 
L 206.430313 202.896 
" style="fill:#bad0f8;"/>
    <path clip-path="url(#pe567fd323a)" d="M 239.910313 202.896 
L 273.390313 202.896 
L 273.390313 224.64 
L 239.910313 224.64 
L 239.910313 202.896 
" style="fill:#7295f4;"/>
    <path clip-path="url(#pe567fd323a)" d="M 273.390313 202.896 
L 306.870313 202.896 
L 306.870313 224.64 
L 273.390313 224.64 
L 273.390313 202.896 
" style="fill:#6c8ff1;"/>
    <path clip-path="url(#pe567fd323a)" d="M 306.870313 202.896 
L 340.350313 202.896 
L 340.350313 224.64 
L 306.870313 224.64 
L 306.870313 202.896 
" style="fill:#88abfd;"/>
    <path clip-path="url(#pe567fd323a)" d="M 340.350313 202.896 
L 373.830313 202.896 
L 373.830313 224.64 
L 340.350313 224.64 
L 340.350313 202.896 
" style="fill:#3e51c5;"/>
    <path clip-path="url(#pe567fd323a)" d="M 373.830313 202.896 
L 407.310313 202.896 
L 407.310313 224.64 
L 373.830313 224.64 
L 373.830313 202.896 
" style="fill:#7295f4;"/>
    <path clip-path="url(#pe567fd323a)" d="M 407.310313 202.896 
L 440.790313 202.896 
L 440.790313 224.64 
L 407.310313 224.64 
L 407.310313 202.896 
" style="fill:#7295f4;"/>
    <path clip-path="url(#pe567fd323a)" d="M 440.790313 202.896 
L 474.270313 202.896 
L 474.270313 224.64 
L 440.790313 224.64 
L 440.790313 202.896 
" style="fill:#b40426;"/>
   </g>
   <g id="text_21">
    <!-- 1.0 -->
    <g style="fill:#ffffff;" transform="translate(146.668438 21.38325)scale(0.12 -0.12)">
     <defs>
      <path d="M 12.40625 8.296875 
L 28.515625 8.296875 
L 28.515625 63.921875 
L 10.984375 60.40625 
L 10.984375 69.390625 
L 28.421875 72.90625 
L 38.28125 72.90625 
L 38.28125 8.296875 
L 54.390625 8.296875 
L 54.390625 0 
L 12.40625 0 
z
" id="DejaVuSans-49"/>
      <path d="M 10.6875 12.40625 
L 21 12.40625 
L 21 0 
L 10.6875 0 
z
" id="DejaVuSans-46"/>
     </defs>
     <use xlink:href="#DejaVuSans-49"/>
     <use x="63.623047" xlink:href="#DejaVuSans-46"/>
     <use x="95.410156" xlink:href="#DejaVuSans-48"/>
    </g>
   </g>
   <g id="text_22">
    <!-- -0.1 -->
    <g style="fill:#ffffff;" transform="translate(177.98375 21.38325)scale(0.12 -0.12)">
     <defs>
      <path d="M 4.890625 31.390625 
L 31.203125 31.390625 
L 31.203125 23.390625 
L 4.890625 23.390625 
z
" id="DejaVuSans-45"/>
     </defs>
     <use xlink:href="#DejaVuSans-45"/>
     <use x="36.083984" xlink:href="#DejaVuSans-48"/>
     <use x="99.707031" xlink:href="#DejaVuSans-46"/>
     <use x="131.494141" xlink:href="#DejaVuSans-49"/>
    </g>
   </g>
   <g id="text_23">
    <!-- -0.1 -->
    <g style="fill:#ffffff;" transform="translate(211.46375 21.38325)scale(0.12 -0.12)">
     <use xlink:href="#DejaVuSans-45"/>
     <use x="36.083984" xlink:href="#DejaVuSans-48"/>
     <use x="99.707031" xlink:href="#DejaVuSans-46"/>
     <use x="131.494141" xlink:href="#DejaVuSans-49"/>
    </g>
   </g>
   <g id="text_24">
    <!-- -0.1 -->
    <g style="fill:#ffffff;" transform="translate(244.94375 21.38325)scale(0.12 -0.12)">
     <use xlink:href="#DejaVuSans-45"/>
     <use x="36.083984" xlink:href="#DejaVuSans-48"/>
     <use x="99.707031" xlink:href="#DejaVuSans-46"/>
     <use x="131.494141" xlink:href="#DejaVuSans-49"/>
    </g>
   </g>
   <g id="text_25">
    <!-- -0.1 -->
    <g style="fill:#ffffff;" transform="translate(278.42375 21.38325)scale(0.12 -0.12)">
     <use xlink:href="#DejaVuSans-45"/>
     <use x="36.083984" xlink:href="#DejaVuSans-48"/>
     <use x="99.707031" xlink:href="#DejaVuSans-46"/>
     <use x="131.494141" xlink:href="#DejaVuSans-49"/>
    </g>
   </g>
   <g id="text_26">
    <!-- 0.1 -->
    <g style="fill:#ffffff;" transform="translate(314.068438 21.38325)scale(0.12 -0.12)">
     <use xlink:href="#DejaVuSans-48"/>
     <use x="63.623047" xlink:href="#DejaVuSans-46"/>
     <use x="95.410156" xlink:href="#DejaVuSans-49"/>
    </g>
   </g>
   <g id="text_27">
    <!-- 0.0 -->
    <g style="fill:#ffffff;" transform="translate(347.548438 21.38325)scale(0.12 -0.12)">
     <use xlink:href="#DejaVuSans-48"/>
     <use x="63.623047" xlink:href="#DejaVuSans-46"/>
     <use x="95.410156" xlink:href="#DejaVuSans-48"/>
    </g>
   </g>
   <g id="text_28">
    <!-- -0.1 -->
    <g style="fill:#ffffff;" transform="translate(378.86375 21.38325)scale(0.12 -0.12)">
     <use xlink:href="#DejaVuSans-45"/>
     <use x="36.083984" xlink:href="#DejaVuSans-48"/>
     <use x="99.707031" xlink:href="#DejaVuSans-46"/>
     <use x="131.494141" xlink:href="#DejaVuSans-49"/>
    </g>
   </g>
   <g id="text_29">
    <!-- -0.1 -->
    <g style="fill:#ffffff;" transform="translate(412.34375 21.38325)scale(0.12 -0.12)">
     <use xlink:href="#DejaVuSans-45"/>
     <use x="36.083984" xlink:href="#DejaVuSans-48"/>
     <use x="99.707031" xlink:href="#DejaVuSans-46"/>
     <use x="131.494141" xlink:href="#DejaVuSans-49"/>
    </g>
   </g>
   <g id="text_30">
    <!-- -0.1 -->
    <g style="fill:#ffffff;" transform="translate(445.82375 21.38325)scale(0.12 -0.12)">
     <use xlink:href="#DejaVuSans-45"/>
     <use x="36.083984" xlink:href="#DejaVuSans-48"/>
     <use x="99.707031" xlink:href="#DejaVuSans-46"/>
     <use x="131.494141" xlink:href="#DejaVuSans-49"/>
    </g>
   </g>
   <g id="text_31">
    <!-- -0.1 -->
    <g style="fill:#ffffff;" transform="translate(144.50375 43.12725)scale(0.12 -0.12)">
     <use xlink:href="#DejaVuSans-45"/>
     <use x="36.083984" xlink:href="#DejaVuSans-48"/>
     <use x="99.707031" xlink:href="#DejaVuSans-46"/>
     <use x="131.494141" xlink:href="#DejaVuSans-49"/>
    </g>
   </g>
   <g id="text_32">
    <!-- 1.0 -->
    <g style="fill:#ffffff;" transform="translate(180.148438 43.12725)scale(0.12 -0.12)">
     <use xlink:href="#DejaVuSans-49"/>
     <use x="63.623047" xlink:href="#DejaVuSans-46"/>
     <use x="95.410156" xlink:href="#DejaVuSans-48"/>
    </g>
   </g>
   <g id="text_33">
    <!-- 0.9 -->
    <g style="fill:#ffffff;" transform="translate(213.628438 43.12725)scale(0.12 -0.12)">
     <defs>
      <path d="M 10.984375 1.515625 
L 10.984375 10.5 
Q 14.703125 8.734375 18.5 7.8125 
Q 22.3125 6.890625 25.984375 6.890625 
Q 35.75 6.890625 40.890625 13.453125 
Q 46.046875 20.015625 46.78125 33.40625 
Q 43.953125 29.203125 39.59375 26.953125 
Q 35.25 24.703125 29.984375 24.703125 
Q 19.046875 24.703125 12.671875 31.3125 
Q 6.296875 37.9375 6.296875 49.421875 
Q 6.296875 60.640625 12.9375 67.421875 
Q 19.578125 74.21875 30.609375 74.21875 
Q 43.265625 74.21875 49.921875 64.515625 
Q 56.59375 54.828125 56.59375 36.375 
Q 56.59375 19.140625 48.40625 8.859375 
Q 40.234375 -1.421875 26.421875 -1.421875 
Q 22.703125 -1.421875 18.890625 -0.6875 
Q 15.09375 0.046875 10.984375 1.515625 
z
M 30.609375 32.421875 
Q 37.25 32.421875 41.125 36.953125 
Q 45.015625 41.5 45.015625 49.421875 
Q 45.015625 57.28125 41.125 61.84375 
Q 37.25 66.40625 30.609375 66.40625 
Q 23.96875 66.40625 20.09375 61.84375 
Q 16.21875 57.28125 16.21875 49.421875 
Q 16.21875 41.5 20.09375 36.953125 
Q 23.96875 32.421875 30.609375 32.421875 
z
" id="DejaVuSans-57"/>
     </defs>
     <use xlink:href="#DejaVuSans-48"/>
     <use x="63.623047" xlink:href="#DejaVuSans-46"/>
     <use x="95.410156" xlink:href="#DejaVuSans-57"/>
    </g>
   </g>
   <g id="text_34">
    <!-- 0.1 -->
    <g style="fill:#ffffff;" transform="translate(247.108438 43.12725)scale(0.12 -0.12)">
     <use xlink:href="#DejaVuSans-48"/>
     <use x="63.623047" xlink:href="#DejaVuSans-46"/>
     <use x="95.410156" xlink:href="#DejaVuSans-49"/>
    </g>
   </g>
   <g id="text_35">
    <!-- -0.0 -->
    <g style="fill:#ffffff;" transform="translate(278.42375 43.12725)scale(0.12 -0.12)">
     <use xlink:href="#DejaVuSans-45"/>
     <use x="36.083984" xlink:href="#DejaVuSans-48"/>
     <use x="99.707031" xlink:href="#DejaVuSans-46"/>
     <use x="131.494141" xlink:href="#DejaVuSans-48"/>
    </g>
   </g>
   <g id="text_36">
    <!-- 0.1 -->
    <g style="fill:#ffffff;" transform="translate(314.068438 43.12725)scale(0.12 -0.12)">
     <use xlink:href="#DejaVuSans-48"/>
     <use x="63.623047" xlink:href="#DejaVuSans-46"/>
     <use x="95.410156" xlink:href="#DejaVuSans-49"/>
    </g>
   </g>
   <g id="text_37">
    <!-- -0.1 -->
    <g style="fill:#ffffff;" transform="translate(345.38375 43.12725)scale(0.12 -0.12)">
     <use xlink:href="#DejaVuSans-45"/>
     <use x="36.083984" xlink:href="#DejaVuSans-48"/>
     <use x="99.707031" xlink:href="#DejaVuSans-46"/>
     <use x="131.494141" xlink:href="#DejaVuSans-49"/>
    </g>
   </g>
   <g id="text_38">
    <!-- 0.1 -->
    <g style="fill:#ffffff;" transform="translate(381.028438 43.12725)scale(0.12 -0.12)">
     <use xlink:href="#DejaVuSans-48"/>
     <use x="63.623047" xlink:href="#DejaVuSans-46"/>
     <use x="95.410156" xlink:href="#DejaVuSans-49"/>
    </g>
   </g>
   <g id="text_39">
    <!-- 0.1 -->
    <g style="fill:#ffffff;" transform="translate(414.508438 43.12725)scale(0.12 -0.12)">
     <use xlink:href="#DejaVuSans-48"/>
     <use x="63.623047" xlink:href="#DejaVuSans-46"/>
     <use x="95.410156" xlink:href="#DejaVuSans-49"/>
    </g>
   </g>
   <g id="text_40">
    <!-- 0.4 -->
    <g style="fill:#262626;" transform="translate(447.988438 43.12725)scale(0.12 -0.12)">
     <defs>
      <path d="M 37.796875 64.3125 
L 12.890625 25.390625 
L 37.796875 25.390625 
z
M 35.203125 72.90625 
L 47.609375 72.90625 
L 47.609375 25.390625 
L 58.015625 25.390625 
L 58.015625 17.1875 
L 47.609375 17.1875 
L 47.609375 0 
L 37.796875 0 
L 37.796875 17.1875 
L 4.890625 17.1875 
L 4.890625 26.703125 
z
" id="DejaVuSans-52"/>
     </defs>
     <use xlink:href="#DejaVuSans-48"/>
     <use x="63.623047" xlink:href="#DejaVuSans-46"/>
     <use x="95.410156" xlink:href="#DejaVuSans-52"/>
    </g>
   </g>
   <g id="text_41">
    <!-- -0.1 -->
    <g style="fill:#ffffff;" transform="translate(144.50375 64.87125)scale(0.12 -0.12)">
     <use xlink:href="#DejaVuSans-45"/>
     <use x="36.083984" xlink:href="#DejaVuSans-48"/>
     <use x="99.707031" xlink:href="#DejaVuSans-46"/>
     <use x="131.494141" xlink:href="#DejaVuSans-49"/>
    </g>
   </g>
   <g id="text_42">
    <!-- 0.9 -->
    <g style="fill:#ffffff;" transform="translate(180.148438 64.87125)scale(0.12 -0.12)">
     <use xlink:href="#DejaVuSans-48"/>
     <use x="63.623047" xlink:href="#DejaVuSans-46"/>
     <use x="95.410156" xlink:href="#DejaVuSans-57"/>
    </g>
   </g>
   <g id="text_43">
    <!-- 1.0 -->
    <g style="fill:#ffffff;" transform="translate(213.628438 64.87125)scale(0.12 -0.12)">
     <use xlink:href="#DejaVuSans-49"/>
     <use x="63.623047" xlink:href="#DejaVuSans-46"/>
     <use x="95.410156" xlink:href="#DejaVuSans-48"/>
    </g>
   </g>
   <g id="text_44">
    <!-- 0.1 -->
    <g style="fill:#ffffff;" transform="translate(247.108438 64.87125)scale(0.12 -0.12)">
     <use xlink:href="#DejaVuSans-48"/>
     <use x="63.623047" xlink:href="#DejaVuSans-46"/>
     <use x="95.410156" xlink:href="#DejaVuSans-49"/>
    </g>
   </g>
   <g id="text_45">
    <!-- -0.0 -->
    <g style="fill:#ffffff;" transform="translate(278.42375 64.87125)scale(0.12 -0.12)">
     <use xlink:href="#DejaVuSans-45"/>
     <use x="36.083984" xlink:href="#DejaVuSans-48"/>
     <use x="99.707031" xlink:href="#DejaVuSans-46"/>
     <use x="131.494141" xlink:href="#DejaVuSans-48"/>
    </g>
   </g>
   <g id="text_46">
    <!-- 0.0 -->
    <g style="fill:#ffffff;" transform="translate(314.068438 64.87125)scale(0.12 -0.12)">
     <use xlink:href="#DejaVuSans-48"/>
     <use x="63.623047" xlink:href="#DejaVuSans-46"/>
     <use x="95.410156" xlink:href="#DejaVuSans-48"/>
    </g>
   </g>
   <g id="text_47">
    <!-- -0.0 -->
    <g style="fill:#ffffff;" transform="translate(345.38375 64.87125)scale(0.12 -0.12)">
     <use xlink:href="#DejaVuSans-45"/>
     <use x="36.083984" xlink:href="#DejaVuSans-48"/>
     <use x="99.707031" xlink:href="#DejaVuSans-46"/>
     <use x="131.494141" xlink:href="#DejaVuSans-48"/>
    </g>
   </g>
   <g id="text_48">
    <!-- 0.1 -->
    <g style="fill:#ffffff;" transform="translate(381.028438 64.87125)scale(0.12 -0.12)">
     <use xlink:href="#DejaVuSans-48"/>
     <use x="63.623047" xlink:href="#DejaVuSans-46"/>
     <use x="95.410156" xlink:href="#DejaVuSans-49"/>
    </g>
   </g>
   <g id="text_49">
    <!-- 0.1 -->
    <g style="fill:#ffffff;" transform="translate(414.508438 64.87125)scale(0.12 -0.12)">
     <use xlink:href="#DejaVuSans-48"/>
     <use x="63.623047" xlink:href="#DejaVuSans-46"/>
     <use x="95.410156" xlink:href="#DejaVuSans-49"/>
    </g>
   </g>
   <g id="text_50">
    <!-- 0.3 -->
    <g style="fill:#262626;" transform="translate(447.988438 64.87125)scale(0.12 -0.12)">
     <defs>
      <path d="M 40.578125 39.3125 
Q 47.65625 37.796875 51.625 33 
Q 55.609375 28.21875 55.609375 21.1875 
Q 55.609375 10.40625 48.1875 4.484375 
Q 40.765625 -1.421875 27.09375 -1.421875 
Q 22.515625 -1.421875 17.65625 -0.515625 
Q 12.796875 0.390625 7.625 2.203125 
L 7.625 11.71875 
Q 11.71875 9.328125 16.59375 8.109375 
Q 21.484375 6.890625 26.8125 6.890625 
Q 36.078125 6.890625 40.9375 10.546875 
Q 45.796875 14.203125 45.796875 21.1875 
Q 45.796875 27.640625 41.28125 31.265625 
Q 36.765625 34.90625 28.71875 34.90625 
L 20.21875 34.90625 
L 20.21875 43.015625 
L 29.109375 43.015625 
Q 36.375 43.015625 40.234375 45.921875 
Q 44.09375 48.828125 44.09375 54.296875 
Q 44.09375 59.90625 40.109375 62.90625 
Q 36.140625 65.921875 28.71875 65.921875 
Q 24.65625 65.921875 20.015625 65.03125 
Q 15.375 64.15625 9.8125 62.3125 
L 9.8125 71.09375 
Q 15.4375 72.65625 20.34375 73.4375 
Q 25.25 74.21875 29.59375 74.21875 
Q 40.828125 74.21875 47.359375 69.109375 
Q 53.90625 64.015625 53.90625 55.328125 
Q 53.90625 49.265625 50.4375 45.09375 
Q 46.96875 40.921875 40.578125 39.3125 
z
" id="DejaVuSans-51"/>
     </defs>
     <use xlink:href="#DejaVuSans-48"/>
     <use x="63.623047" xlink:href="#DejaVuSans-46"/>
     <use x="95.410156" xlink:href="#DejaVuSans-51"/>
    </g>
   </g>
   <g id="text_51">
    <!-- -0.1 -->
    <g style="fill:#ffffff;" transform="translate(144.50375 86.61525)scale(0.12 -0.12)">
     <use xlink:href="#DejaVuSans-45"/>
     <use x="36.083984" xlink:href="#DejaVuSans-48"/>
     <use x="99.707031" xlink:href="#DejaVuSans-46"/>
     <use x="131.494141" xlink:href="#DejaVuSans-49"/>
    </g>
   </g>
   <g id="text_52">
    <!-- 0.1 -->
    <g style="fill:#ffffff;" transform="translate(180.148438 86.61525)scale(0.12 -0.12)">
     <use xlink:href="#DejaVuSans-48"/>
     <use x="63.623047" xlink:href="#DejaVuSans-46"/>
     <use x="95.410156" xlink:href="#DejaVuSans-49"/>
    </g>
   </g>
   <g id="text_53">
    <!-- 0.1 -->
    <g style="fill:#ffffff;" transform="translate(213.628438 86.61525)scale(0.12 -0.12)">
     <use xlink:href="#DejaVuSans-48"/>
     <use x="63.623047" xlink:href="#DejaVuSans-46"/>
     <use x="95.410156" xlink:href="#DejaVuSans-49"/>
    </g>
   </g>
   <g id="text_54">
    <!-- 1.0 -->
    <g style="fill:#ffffff;" transform="translate(247.108438 86.61525)scale(0.12 -0.12)">
     <use xlink:href="#DejaVuSans-49"/>
     <use x="63.623047" xlink:href="#DejaVuSans-46"/>
     <use x="95.410156" xlink:href="#DejaVuSans-48"/>
    </g>
   </g>
   <g id="text_55">
    <!-- 0.2 -->
    <g style="fill:#262626;" transform="translate(280.588438 86.61525)scale(0.12 -0.12)">
     <defs>
      <path d="M 19.1875 8.296875 
L 53.609375 8.296875 
L 53.609375 0 
L 7.328125 0 
L 7.328125 8.296875 
Q 12.9375 14.109375 22.625 23.890625 
Q 32.328125 33.6875 34.8125 36.53125 
Q 39.546875 41.84375 41.421875 45.53125 
Q 43.3125 49.21875 43.3125 52.78125 
Q 43.3125 58.59375 39.234375 62.25 
Q 35.15625 65.921875 28.609375 65.921875 
Q 23.96875 65.921875 18.8125 64.3125 
Q 13.671875 62.703125 7.8125 59.421875 
L 7.8125 69.390625 
Q 13.765625 71.78125 18.9375 73 
Q 24.125 74.21875 28.421875 74.21875 
Q 39.75 74.21875 46.484375 68.546875 
Q 53.21875 62.890625 53.21875 53.421875 
Q 53.21875 48.921875 51.53125 44.890625 
Q 49.859375 40.875 45.40625 35.40625 
Q 44.1875 33.984375 37.640625 27.21875 
Q 31.109375 20.453125 19.1875 8.296875 
z
" id="DejaVuSans-50"/>
     </defs>
     <use xlink:href="#DejaVuSans-48"/>
     <use x="63.623047" xlink:href="#DejaVuSans-46"/>
     <use x="95.410156" xlink:href="#DejaVuSans-50"/>
    </g>
   </g>
   <g id="text_56">
    <!-- 0.3 -->
    <g style="fill:#262626;" transform="translate(314.068438 86.61525)scale(0.12 -0.12)">
     <use xlink:href="#DejaVuSans-48"/>
     <use x="63.623047" xlink:href="#DejaVuSans-46"/>
     <use x="95.410156" xlink:href="#DejaVuSans-51"/>
    </g>
   </g>
   <g id="text_57">
    <!-- -0.1 -->
    <g style="fill:#ffffff;" transform="translate(345.38375 86.61525)scale(0.12 -0.12)">
     <use xlink:href="#DejaVuSans-45"/>
     <use x="36.083984" xlink:href="#DejaVuSans-48"/>
     <use x="99.707031" xlink:href="#DejaVuSans-46"/>
     <use x="131.494141" xlink:href="#DejaVuSans-49"/>
    </g>
   </g>
   <g id="text_58">
    <!-- 1.0 -->
    <g style="fill:#ffffff;" transform="translate(381.028438 86.61525)scale(0.12 -0.12)">
     <use xlink:href="#DejaVuSans-49"/>
     <use x="63.623047" xlink:href="#DejaVuSans-46"/>
     <use x="95.410156" xlink:href="#DejaVuSans-48"/>
    </g>
   </g>
   <g id="text_59">
    <!-- 1.0 -->
    <g style="fill:#ffffff;" transform="translate(414.508438 86.61525)scale(0.12 -0.12)">
     <use xlink:href="#DejaVuSans-49"/>
     <use x="63.623047" xlink:href="#DejaVuSans-46"/>
     <use x="95.410156" xlink:href="#DejaVuSans-48"/>
    </g>
   </g>
   <g id="text_60">
    <!-- 0.1 -->
    <g style="fill:#ffffff;" transform="translate(447.988438 86.61525)scale(0.12 -0.12)">
     <use xlink:href="#DejaVuSans-48"/>
     <use x="63.623047" xlink:href="#DejaVuSans-46"/>
     <use x="95.410156" xlink:href="#DejaVuSans-49"/>
    </g>
   </g>
   <g id="text_61">
    <!-- -0.1 -->
    <g style="fill:#ffffff;" transform="translate(144.50375 108.35925)scale(0.12 -0.12)">
     <use xlink:href="#DejaVuSans-45"/>
     <use x="36.083984" xlink:href="#DejaVuSans-48"/>
     <use x="99.707031" xlink:href="#DejaVuSans-46"/>
     <use x="131.494141" xlink:href="#DejaVuSans-49"/>
    </g>
   </g>
   <g id="text_62">
    <!-- -0.0 -->
    <g style="fill:#ffffff;" transform="translate(177.98375 108.35925)scale(0.12 -0.12)">
     <use xlink:href="#DejaVuSans-45"/>
     <use x="36.083984" xlink:href="#DejaVuSans-48"/>
     <use x="99.707031" xlink:href="#DejaVuSans-46"/>
     <use x="131.494141" xlink:href="#DejaVuSans-48"/>
    </g>
   </g>
   <g id="text_63">
    <!-- -0.0 -->
    <g style="fill:#ffffff;" transform="translate(211.46375 108.35925)scale(0.12 -0.12)">
     <use xlink:href="#DejaVuSans-45"/>
     <use x="36.083984" xlink:href="#DejaVuSans-48"/>
     <use x="99.707031" xlink:href="#DejaVuSans-46"/>
     <use x="131.494141" xlink:href="#DejaVuSans-48"/>
    </g>
   </g>
   <g id="text_64">
    <!-- 0.2 -->
    <g style="fill:#262626;" transform="translate(247.108438 108.35925)scale(0.12 -0.12)">
     <use xlink:href="#DejaVuSans-48"/>
     <use x="63.623047" xlink:href="#DejaVuSans-46"/>
     <use x="95.410156" xlink:href="#DejaVuSans-50"/>
    </g>
   </g>
   <g id="text_65">
    <!-- 1.0 -->
    <g style="fill:#ffffff;" transform="translate(280.588438 108.35925)scale(0.12 -0.12)">
     <use xlink:href="#DejaVuSans-49"/>
     <use x="63.623047" xlink:href="#DejaVuSans-46"/>
     <use x="95.410156" xlink:href="#DejaVuSans-48"/>
    </g>
   </g>
   <g id="text_66">
    <!-- 0.0 -->
    <g style="fill:#ffffff;" transform="translate(314.068438 108.35925)scale(0.12 -0.12)">
     <use xlink:href="#DejaVuSans-48"/>
     <use x="63.623047" xlink:href="#DejaVuSans-46"/>
     <use x="95.410156" xlink:href="#DejaVuSans-48"/>
    </g>
   </g>
   <g id="text_67">
    <!-- 0.1 -->
    <g style="fill:#ffffff;" transform="translate(347.548438 108.35925)scale(0.12 -0.12)">
     <use xlink:href="#DejaVuSans-48"/>
     <use x="63.623047" xlink:href="#DejaVuSans-46"/>
     <use x="95.410156" xlink:href="#DejaVuSans-49"/>
    </g>
   </g>
   <g id="text_68">
    <!-- 0.2 -->
    <g style="fill:#262626;" transform="translate(381.028438 108.35925)scale(0.12 -0.12)">
     <use xlink:href="#DejaVuSans-48"/>
     <use x="63.623047" xlink:href="#DejaVuSans-46"/>
     <use x="95.410156" xlink:href="#DejaVuSans-50"/>
    </g>
   </g>
   <g id="text_69">
    <!-- 0.2 -->
    <g style="fill:#262626;" transform="translate(414.508438 108.35925)scale(0.12 -0.12)">
     <use xlink:href="#DejaVuSans-48"/>
     <use x="63.623047" xlink:href="#DejaVuSans-46"/>
     <use x="95.410156" xlink:href="#DejaVuSans-50"/>
    </g>
   </g>
   <g id="text_70">
    <!-- 0.0 -->
    <g style="fill:#ffffff;" transform="translate(447.988438 108.35925)scale(0.12 -0.12)">
     <use xlink:href="#DejaVuSans-48"/>
     <use x="63.623047" xlink:href="#DejaVuSans-46"/>
     <use x="95.410156" xlink:href="#DejaVuSans-48"/>
    </g>
   </g>
   <g id="text_71">
    <!-- 0.1 -->
    <g style="fill:#ffffff;" transform="translate(146.668438 130.10325)scale(0.12 -0.12)">
     <use xlink:href="#DejaVuSans-48"/>
     <use x="63.623047" xlink:href="#DejaVuSans-46"/>
     <use x="95.410156" xlink:href="#DejaVuSans-49"/>
    </g>
   </g>
   <g id="text_72">
    <!-- 0.1 -->
    <g style="fill:#ffffff;" transform="translate(180.148438 130.10325)scale(0.12 -0.12)">
     <use xlink:href="#DejaVuSans-48"/>
     <use x="63.623047" xlink:href="#DejaVuSans-46"/>
     <use x="95.410156" xlink:href="#DejaVuSans-49"/>
    </g>
   </g>
   <g id="text_73">
    <!-- 0.0 -->
    <g style="fill:#ffffff;" transform="translate(213.628438 130.10325)scale(0.12 -0.12)">
     <use xlink:href="#DejaVuSans-48"/>
     <use x="63.623047" xlink:href="#DejaVuSans-46"/>
     <use x="95.410156" xlink:href="#DejaVuSans-48"/>
    </g>
   </g>
   <g id="text_74">
    <!-- 0.3 -->
    <g style="fill:#262626;" transform="translate(247.108438 130.10325)scale(0.12 -0.12)">
     <use xlink:href="#DejaVuSans-48"/>
     <use x="63.623047" xlink:href="#DejaVuSans-46"/>
     <use x="95.410156" xlink:href="#DejaVuSans-51"/>
    </g>
   </g>
   <g id="text_75">
    <!-- 0.0 -->
    <g style="fill:#ffffff;" transform="translate(280.588438 130.10325)scale(0.12 -0.12)">
     <use xlink:href="#DejaVuSans-48"/>
     <use x="63.623047" xlink:href="#DejaVuSans-46"/>
     <use x="95.410156" xlink:href="#DejaVuSans-48"/>
    </g>
   </g>
   <g id="text_76">
    <!-- 1.0 -->
    <g style="fill:#ffffff;" transform="translate(314.068438 130.10325)scale(0.12 -0.12)">
     <use xlink:href="#DejaVuSans-49"/>
     <use x="63.623047" xlink:href="#DejaVuSans-46"/>
     <use x="95.410156" xlink:href="#DejaVuSans-48"/>
    </g>
   </g>
   <g id="text_77">
    <!-- -0.1 -->
    <g style="fill:#ffffff;" transform="translate(345.38375 130.10325)scale(0.12 -0.12)">
     <use xlink:href="#DejaVuSans-45"/>
     <use x="36.083984" xlink:href="#DejaVuSans-48"/>
     <use x="99.707031" xlink:href="#DejaVuSans-46"/>
     <use x="131.494141" xlink:href="#DejaVuSans-49"/>
    </g>
   </g>
   <g id="text_78">
    <!-- 0.3 -->
    <g style="fill:#262626;" transform="translate(381.028438 130.10325)scale(0.12 -0.12)">
     <use xlink:href="#DejaVuSans-48"/>
     <use x="63.623047" xlink:href="#DejaVuSans-46"/>
     <use x="95.410156" xlink:href="#DejaVuSans-51"/>
    </g>
   </g>
   <g id="text_79">
    <!-- 0.3 -->
    <g style="fill:#262626;" transform="translate(414.508438 130.10325)scale(0.12 -0.12)">
     <use xlink:href="#DejaVuSans-48"/>
     <use x="63.623047" xlink:href="#DejaVuSans-46"/>
     <use x="95.410156" xlink:href="#DejaVuSans-51"/>
    </g>
   </g>
   <g id="text_80">
    <!-- 0.1 -->
    <g style="fill:#262626;" transform="translate(447.988438 130.10325)scale(0.12 -0.12)">
     <use xlink:href="#DejaVuSans-48"/>
     <use x="63.623047" xlink:href="#DejaVuSans-46"/>
     <use x="95.410156" xlink:href="#DejaVuSans-49"/>
    </g>
   </g>
   <g id="text_81">
    <!-- 0.0 -->
    <g style="fill:#ffffff;" transform="translate(146.668438 151.84725)scale(0.12 -0.12)">
     <use xlink:href="#DejaVuSans-48"/>
     <use x="63.623047" xlink:href="#DejaVuSans-46"/>
     <use x="95.410156" xlink:href="#DejaVuSans-48"/>
    </g>
   </g>
   <g id="text_82">
    <!-- -0.1 -->
    <g style="fill:#ffffff;" transform="translate(177.98375 151.84725)scale(0.12 -0.12)">
     <use xlink:href="#DejaVuSans-45"/>
     <use x="36.083984" xlink:href="#DejaVuSans-48"/>
     <use x="99.707031" xlink:href="#DejaVuSans-46"/>
     <use x="131.494141" xlink:href="#DejaVuSans-49"/>
    </g>
   </g>
   <g id="text_83">
    <!-- -0.0 -->
    <g style="fill:#ffffff;" transform="translate(211.46375 151.84725)scale(0.12 -0.12)">
     <use xlink:href="#DejaVuSans-45"/>
     <use x="36.083984" xlink:href="#DejaVuSans-48"/>
     <use x="99.707031" xlink:href="#DejaVuSans-46"/>
     <use x="131.494141" xlink:href="#DejaVuSans-48"/>
    </g>
   </g>
   <g id="text_84">
    <!-- -0.1 -->
    <g style="fill:#ffffff;" transform="translate(244.94375 151.84725)scale(0.12 -0.12)">
     <use xlink:href="#DejaVuSans-45"/>
     <use x="36.083984" xlink:href="#DejaVuSans-48"/>
     <use x="99.707031" xlink:href="#DejaVuSans-46"/>
     <use x="131.494141" xlink:href="#DejaVuSans-49"/>
    </g>
   </g>
   <g id="text_85">
    <!-- 0.1 -->
    <g style="fill:#ffffff;" transform="translate(280.588438 151.84725)scale(0.12 -0.12)">
     <use xlink:href="#DejaVuSans-48"/>
     <use x="63.623047" xlink:href="#DejaVuSans-46"/>
     <use x="95.410156" xlink:href="#DejaVuSans-49"/>
    </g>
   </g>
   <g id="text_86">
    <!-- -0.1 -->
    <g style="fill:#ffffff;" transform="translate(311.90375 151.84725)scale(0.12 -0.12)">
     <use xlink:href="#DejaVuSans-45"/>
     <use x="36.083984" xlink:href="#DejaVuSans-48"/>
     <use x="99.707031" xlink:href="#DejaVuSans-46"/>
     <use x="131.494141" xlink:href="#DejaVuSans-49"/>
    </g>
   </g>
   <g id="text_87">
    <!-- 1.0 -->
    <g style="fill:#ffffff;" transform="translate(347.548438 151.84725)scale(0.12 -0.12)">
     <use xlink:href="#DejaVuSans-49"/>
     <use x="63.623047" xlink:href="#DejaVuSans-46"/>
     <use x="95.410156" xlink:href="#DejaVuSans-48"/>
    </g>
   </g>
   <g id="text_88">
    <!-- -0.1 -->
    <g style="fill:#ffffff;" transform="translate(378.86375 151.84725)scale(0.12 -0.12)">
     <use xlink:href="#DejaVuSans-45"/>
     <use x="36.083984" xlink:href="#DejaVuSans-48"/>
     <use x="99.707031" xlink:href="#DejaVuSans-46"/>
     <use x="131.494141" xlink:href="#DejaVuSans-49"/>
    </g>
   </g>
   <g id="text_89">
    <!-- -0.1 -->
    <g style="fill:#ffffff;" transform="translate(412.34375 151.84725)scale(0.12 -0.12)">
     <use xlink:href="#DejaVuSans-45"/>
     <use x="36.083984" xlink:href="#DejaVuSans-48"/>
     <use x="99.707031" xlink:href="#DejaVuSans-46"/>
     <use x="131.494141" xlink:href="#DejaVuSans-49"/>
    </g>
   </g>
   <g id="text_90">
    <!-- -0.1 -->
    <g style="fill:#ffffff;" transform="translate(445.82375 151.84725)scale(0.12 -0.12)">
     <use xlink:href="#DejaVuSans-45"/>
     <use x="36.083984" xlink:href="#DejaVuSans-48"/>
     <use x="99.707031" xlink:href="#DejaVuSans-46"/>
     <use x="131.494141" xlink:href="#DejaVuSans-49"/>
    </g>
   </g>
   <g id="text_91">
    <!-- -0.1 -->
    <g style="fill:#ffffff;" transform="translate(144.50375 173.59125)scale(0.12 -0.12)">
     <use xlink:href="#DejaVuSans-45"/>
     <use x="36.083984" xlink:href="#DejaVuSans-48"/>
     <use x="99.707031" xlink:href="#DejaVuSans-46"/>
     <use x="131.494141" xlink:href="#DejaVuSans-49"/>
    </g>
   </g>
   <g id="text_92">
    <!-- 0.1 -->
    <g style="fill:#ffffff;" transform="translate(180.148438 173.59125)scale(0.12 -0.12)">
     <use xlink:href="#DejaVuSans-48"/>
     <use x="63.623047" xlink:href="#DejaVuSans-46"/>
     <use x="95.410156" xlink:href="#DejaVuSans-49"/>
    </g>
   </g>
   <g id="text_93">
    <!-- 0.1 -->
    <g style="fill:#ffffff;" transform="translate(213.628438 173.59125)scale(0.12 -0.12)">
     <use xlink:href="#DejaVuSans-48"/>
     <use x="63.623047" xlink:href="#DejaVuSans-46"/>
     <use x="95.410156" xlink:href="#DejaVuSans-49"/>
    </g>
   </g>
   <g id="text_94">
    <!-- 1.0 -->
    <g style="fill:#ffffff;" transform="translate(247.108438 173.59125)scale(0.12 -0.12)">
     <use xlink:href="#DejaVuSans-49"/>
     <use x="63.623047" xlink:href="#DejaVuSans-46"/>
     <use x="95.410156" xlink:href="#DejaVuSans-48"/>
    </g>
   </g>
   <g id="text_95">
    <!-- 0.2 -->
    <g style="fill:#262626;" transform="translate(280.588438 173.59125)scale(0.12 -0.12)">
     <use xlink:href="#DejaVuSans-48"/>
     <use x="63.623047" xlink:href="#DejaVuSans-46"/>
     <use x="95.410156" xlink:href="#DejaVuSans-50"/>
    </g>
   </g>
   <g id="text_96">
    <!-- 0.3 -->
    <g style="fill:#262626;" transform="translate(314.068438 173.59125)scale(0.12 -0.12)">
     <use xlink:href="#DejaVuSans-48"/>
     <use x="63.623047" xlink:href="#DejaVuSans-46"/>
     <use x="95.410156" xlink:href="#DejaVuSans-51"/>
    </g>
   </g>
   <g id="text_97">
    <!-- -0.1 -->
    <g style="fill:#ffffff;" transform="translate(345.38375 173.59125)scale(0.12 -0.12)">
     <use xlink:href="#DejaVuSans-45"/>
     <use x="36.083984" xlink:href="#DejaVuSans-48"/>
     <use x="99.707031" xlink:href="#DejaVuSans-46"/>
     <use x="131.494141" xlink:href="#DejaVuSans-49"/>
    </g>
   </g>
   <g id="text_98">
    <!-- 1.0 -->
    <g style="fill:#ffffff;" transform="translate(381.028438 173.59125)scale(0.12 -0.12)">
     <use xlink:href="#DejaVuSans-49"/>
     <use x="63.623047" xlink:href="#DejaVuSans-46"/>
     <use x="95.410156" xlink:href="#DejaVuSans-48"/>
    </g>
   </g>
   <g id="text_99">
    <!-- 1.0 -->
    <g style="fill:#ffffff;" transform="translate(414.508438 173.59125)scale(0.12 -0.12)">
     <use xlink:href="#DejaVuSans-49"/>
     <use x="63.623047" xlink:href="#DejaVuSans-46"/>
     <use x="95.410156" xlink:href="#DejaVuSans-48"/>
    </g>
   </g>
   <g id="text_100">
    <!-- 0.1 -->
    <g style="fill:#ffffff;" transform="translate(447.988438 173.59125)scale(0.12 -0.12)">
     <use xlink:href="#DejaVuSans-48"/>
     <use x="63.623047" xlink:href="#DejaVuSans-46"/>
     <use x="95.410156" xlink:href="#DejaVuSans-49"/>
    </g>
   </g>
   <g id="text_101">
    <!-- -0.1 -->
    <g style="fill:#ffffff;" transform="translate(144.50375 195.33525)scale(0.12 -0.12)">
     <use xlink:href="#DejaVuSans-45"/>
     <use x="36.083984" xlink:href="#DejaVuSans-48"/>
     <use x="99.707031" xlink:href="#DejaVuSans-46"/>
     <use x="131.494141" xlink:href="#DejaVuSans-49"/>
    </g>
   </g>
   <g id="text_102">
    <!-- 0.1 -->
    <g style="fill:#ffffff;" transform="translate(180.148438 195.33525)scale(0.12 -0.12)">
     <use xlink:href="#DejaVuSans-48"/>
     <use x="63.623047" xlink:href="#DejaVuSans-46"/>
     <use x="95.410156" xlink:href="#DejaVuSans-49"/>
    </g>
   </g>
   <g id="text_103">
    <!-- 0.1 -->
    <g style="fill:#ffffff;" transform="translate(213.628438 195.33525)scale(0.12 -0.12)">
     <use xlink:href="#DejaVuSans-48"/>
     <use x="63.623047" xlink:href="#DejaVuSans-46"/>
     <use x="95.410156" xlink:href="#DejaVuSans-49"/>
    </g>
   </g>
   <g id="text_104">
    <!-- 1.0 -->
    <g style="fill:#ffffff;" transform="translate(247.108438 195.33525)scale(0.12 -0.12)">
     <use xlink:href="#DejaVuSans-49"/>
     <use x="63.623047" xlink:href="#DejaVuSans-46"/>
     <use x="95.410156" xlink:href="#DejaVuSans-48"/>
    </g>
   </g>
   <g id="text_105">
    <!-- 0.2 -->
    <g style="fill:#262626;" transform="translate(280.588438 195.33525)scale(0.12 -0.12)">
     <use xlink:href="#DejaVuSans-48"/>
     <use x="63.623047" xlink:href="#DejaVuSans-46"/>
     <use x="95.410156" xlink:href="#DejaVuSans-50"/>
    </g>
   </g>
   <g id="text_106">
    <!-- 0.3 -->
    <g style="fill:#262626;" transform="translate(314.068438 195.33525)scale(0.12 -0.12)">
     <use xlink:href="#DejaVuSans-48"/>
     <use x="63.623047" xlink:href="#DejaVuSans-46"/>
     <use x="95.410156" xlink:href="#DejaVuSans-51"/>
    </g>
   </g>
   <g id="text_107">
    <!-- -0.1 -->
    <g style="fill:#ffffff;" transform="translate(345.38375 195.33525)scale(0.12 -0.12)">
     <use xlink:href="#DejaVuSans-45"/>
     <use x="36.083984" xlink:href="#DejaVuSans-48"/>
     <use x="99.707031" xlink:href="#DejaVuSans-46"/>
     <use x="131.494141" xlink:href="#DejaVuSans-49"/>
    </g>
   </g>
   <g id="text_108">
    <!-- 1.0 -->
    <g style="fill:#ffffff;" transform="translate(381.028438 195.33525)scale(0.12 -0.12)">
     <use xlink:href="#DejaVuSans-49"/>
     <use x="63.623047" xlink:href="#DejaVuSans-46"/>
     <use x="95.410156" xlink:href="#DejaVuSans-48"/>
    </g>
   </g>
   <g id="text_109">
    <!-- 1.0 -->
    <g style="fill:#ffffff;" transform="translate(414.508438 195.33525)scale(0.12 -0.12)">
     <use xlink:href="#DejaVuSans-49"/>
     <use x="63.623047" xlink:href="#DejaVuSans-46"/>
     <use x="95.410156" xlink:href="#DejaVuSans-48"/>
    </g>
   </g>
   <g id="text_110">
    <!-- 0.1 -->
    <g style="fill:#ffffff;" transform="translate(447.988438 195.33525)scale(0.12 -0.12)">
     <use xlink:href="#DejaVuSans-48"/>
     <use x="63.623047" xlink:href="#DejaVuSans-46"/>
     <use x="95.410156" xlink:href="#DejaVuSans-49"/>
    </g>
   </g>
   <g id="text_111">
    <!-- -0.1 -->
    <g style="fill:#ffffff;" transform="translate(144.50375 217.07925)scale(0.12 -0.12)">
     <use xlink:href="#DejaVuSans-45"/>
     <use x="36.083984" xlink:href="#DejaVuSans-48"/>
     <use x="99.707031" xlink:href="#DejaVuSans-46"/>
     <use x="131.494141" xlink:href="#DejaVuSans-49"/>
    </g>
   </g>
   <g id="text_112">
    <!-- 0.4 -->
    <g style="fill:#262626;" transform="translate(180.148438 217.07925)scale(0.12 -0.12)">
     <use xlink:href="#DejaVuSans-48"/>
     <use x="63.623047" xlink:href="#DejaVuSans-46"/>
     <use x="95.410156" xlink:href="#DejaVuSans-52"/>
    </g>
   </g>
   <g id="text_113">
    <!-- 0.3 -->
    <g style="fill:#262626;" transform="translate(213.628438 217.07925)scale(0.12 -0.12)">
     <use xlink:href="#DejaVuSans-48"/>
     <use x="63.623047" xlink:href="#DejaVuSans-46"/>
     <use x="95.410156" xlink:href="#DejaVuSans-51"/>
    </g>
   </g>
   <g id="text_114">
    <!-- 0.1 -->
    <g style="fill:#ffffff;" transform="translate(247.108438 217.07925)scale(0.12 -0.12)">
     <use xlink:href="#DejaVuSans-48"/>
     <use x="63.623047" xlink:href="#DejaVuSans-46"/>
     <use x="95.410156" xlink:href="#DejaVuSans-49"/>
    </g>
   </g>
   <g id="text_115">
    <!-- 0.0 -->
    <g style="fill:#ffffff;" transform="translate(280.588438 217.07925)scale(0.12 -0.12)">
     <use xlink:href="#DejaVuSans-48"/>
     <use x="63.623047" xlink:href="#DejaVuSans-46"/>
     <use x="95.410156" xlink:href="#DejaVuSans-48"/>
    </g>
   </g>
   <g id="text_116">
    <!-- 0.1 -->
    <g style="fill:#262626;" transform="translate(314.068438 217.07925)scale(0.12 -0.12)">
     <use xlink:href="#DejaVuSans-48"/>
     <use x="63.623047" xlink:href="#DejaVuSans-46"/>
     <use x="95.410156" xlink:href="#DejaVuSans-49"/>
    </g>
   </g>
   <g id="text_117">
    <!-- -0.1 -->
    <g style="fill:#ffffff;" transform="translate(345.38375 217.07925)scale(0.12 -0.12)">
     <use xlink:href="#DejaVuSans-45"/>
     <use x="36.083984" xlink:href="#DejaVuSans-48"/>
     <use x="99.707031" xlink:href="#DejaVuSans-46"/>
     <use x="131.494141" xlink:href="#DejaVuSans-49"/>
    </g>
   </g>
   <g id="text_118">
    <!-- 0.1 -->
    <g style="fill:#ffffff;" transform="translate(381.028438 217.07925)scale(0.12 -0.12)">
     <use xlink:href="#DejaVuSans-48"/>
     <use x="63.623047" xlink:href="#DejaVuSans-46"/>
     <use x="95.410156" xlink:href="#DejaVuSans-49"/>
    </g>
   </g>
   <g id="text_119">
    <!-- 0.1 -->
    <g style="fill:#ffffff;" transform="translate(414.508438 217.07925)scale(0.12 -0.12)">
     <use xlink:href="#DejaVuSans-48"/>
     <use x="63.623047" xlink:href="#DejaVuSans-46"/>
     <use x="95.410156" xlink:href="#DejaVuSans-49"/>
    </g>
   </g>
   <g id="text_120">
    <!-- 1.0 -->
    <g style="fill:#ffffff;" transform="translate(447.988438 217.07925)scale(0.12 -0.12)">
     <use xlink:href="#DejaVuSans-49"/>
     <use x="63.623047" xlink:href="#DejaVuSans-46"/>
     <use x="95.410156" xlink:href="#DejaVuSans-48"/>
    </g>
   </g>
  </g>
 </g>
 <defs>
  <clipPath id="pe567fd323a">
   <rect height="217.44" width="334.8" x="139.470313" y="7.2"/>
  </clipPath>
 </defs>
</svg>
